<?xml version="1.0" encoding="UTF-8" standalone="no"?>
<!-- Created with Inkscape (http://www.inkscape.org/) -->

<svg
   xmlns:dc="http://purl.org/dc/elements/1.1/"
   xmlns:cc="http://creativecommons.org/ns#"
   xmlns:rdf="http://www.w3.org/1999/02/22-rdf-syntax-ns#"
   xmlns:svg="http://www.w3.org/2000/svg"
   xmlns="http://www.w3.org/2000/svg"
   xmlns:sodipodi="http://sodipodi.sourceforge.net/DTD/sodipodi-0.dtd"
   xmlns:inkscape="http://www.inkscape.org/namespaces/inkscape"
   version="1.1"
   id="svg2"
   xml:space="preserve"
   width="262.64014"
   height="327.51825"
   viewBox="0 0 262.64014 327.51825"
   sodipodi:docname="hp_econ_closed_ihx1.svg"
   inkscape:version="0.92.4 (5da689c313, 2019-01-14)"><metadata
     id="metadata8"><rdf:RDF><cc:Work
         rdf:about=""><dc:format>image/svg+xml</dc:format><dc:type
           rdf:resource="http://purl.org/dc/dcmitype/StillImage" /><dc:title></dc:title></cc:Work></rdf:RDF></metadata><defs
     id="defs6" /><sodipodi:namedview
     pagecolor="#ffffff"
     bordercolor="#666666"
     borderopacity="1"
     objecttolerance="10"
     gridtolerance="10"
     guidetolerance="10"
     inkscape:pageopacity="0"
     inkscape:pageshadow="2"
     inkscape:window-width="3840"
     inkscape:window-height="2054"
     id="namedview4"
     showgrid="false"
     inkscape:zoom="4.0761625"
     inkscape:cx="232.65008"
     inkscape:cy="148.96026"
     inkscape:window-x="-11"
     inkscape:window-y="-11"
     inkscape:window-maximized="1"
     inkscape:current-layer="g10" /><g
     id="g10"
     inkscape:groupmode="layer"
     inkscape:label="hp_econ_closed_ihx1"
     transform="matrix(1.3333333,0,0,1.3333333,0,8.8546229e-6)"><g
       id="g12"><g
         id="g14"
         transform="scale(1,0.999996)"><path
           d="M 15.621,51.938 H 6.145"
           style="fill:none;stroke:#000000;stroke-width:2.83465099;stroke-linecap:round;stroke-linejoin:round;stroke-miterlimit:4;stroke-dasharray:none;stroke-opacity:1"
           id="path16"
           inkscape:connector-curvature="0" /></g><g
         id="g18"
         transform="scale(1,0.999996)"><path
           d="M 6.145,51.938 20.332,80.25"
           style="fill:none;stroke:#000000;stroke-width:2.83465099;stroke-linecap:round;stroke-linejoin:round;stroke-miterlimit:4;stroke-dasharray:none;stroke-opacity:1"
           id="path20"
           inkscape:connector-curvature="0" /></g><g
         id="g22"
         transform="scale(1,0.999996)"><path
           d="M 15.621,51.938 1.438,80.25"
           style="fill:none;stroke:#000000;stroke-width:2.83465099;stroke-linecap:round;stroke-linejoin:round;stroke-miterlimit:4;stroke-dasharray:none;stroke-opacity:1"
           id="path24"
           inkscape:connector-curvature="0" /></g><g
         id="g26"
         transform="scale(1,0.999996)"><path
           d="M 20.332,80.25 H 1.438"
           style="fill:none;stroke:#000000;stroke-width:2.83465099;stroke-linecap:round;stroke-linejoin:round;stroke-miterlimit:4;stroke-dasharray:none;stroke-opacity:1"
           id="path28"
           inkscape:connector-curvature="0" /></g><g
         id="g30"
         transform="scale(0.981216,1)"><path
           d="m 68.729,222.242 c 0,0 -28.314,0.004 -28.314,0.004 0,0 0,-28.34 0,-28.34"
           style="fill:none;stroke:#000000;stroke-width:1.430825;stroke-linecap:butt;stroke-linejoin:round;stroke-miterlimit:4;stroke-dasharray:none;stroke-opacity:1"
           id="path32"
           inkscape:connector-curvature="0" /></g><g
         id="g34"
         transform="matrix(0,-0.955224,1,0,0,0)"><path
           d="m -202.996,181.371 c 0,0 -29.692,0 -29.692,0 0,0 0,-27.762 0,-27.762"
           style="fill:none;stroke:#000000;stroke-width:1.45016098;stroke-linecap:butt;stroke-linejoin:round;stroke-miterlimit:4;stroke-dasharray:none;stroke-opacity:1"
           id="path36"
           inkscape:connector-curvature="0" /></g><g
         id="g38"
         transform="scale(-1)"><path
           d="m -124.695,-23.828 c 0,0 -56.692,0 -56.692,0 0,0 0,-28.348 0,-28.348"
           style="fill:none;stroke:#000000;stroke-width:1.41732299;stroke-linecap:butt;stroke-linejoin:round;stroke-miterlimit:4;stroke-dasharray:none;stroke-opacity:1"
           id="path40"
           inkscape:connector-curvature="0" /></g><g
         id="g42"
         transform="matrix(0.017972,1,-1,0.017972,0,0)"><path
           d="m 83.757,-180.139 c 0,7.828 -6.345,14.171 -14.173,14.171 -7.824,0 -14.171,-6.345 -14.171,-14.169 0,-7.828 6.345,-14.171 14.173,-14.171 7.824,0 14.171,6.345 14.171,14.169 z"
           style="fill:none;stroke:#000000;stroke-width:2.83418798;stroke-linecap:round;stroke-linejoin:round;stroke-miterlimit:4;stroke-dasharray:none;stroke-opacity:1"
           id="path44"
           inkscape:connector-curvature="0" /></g><g
         id="g46"><path
           d="m 172.086,78.008 5.535,-25.133"
           style="fill:none;stroke:#000000;stroke-width:0.943937;stroke-linecap:round;stroke-linejoin:round;stroke-miterlimit:4;stroke-dasharray:none;stroke-opacity:1"
           id="path48"
           inkscape:connector-curvature="0" /></g><g
         id="g50"><path
           d="M 190.691,78.008 185.152,52.875"
           style="fill:none;stroke:#000000;stroke-width:0.943937;stroke-linecap:round;stroke-linejoin:round;stroke-miterlimit:4;stroke-dasharray:none;stroke-opacity:1"
           id="path52"
           inkscape:connector-curvature="0" /></g><g
         id="g54"
         transform="rotate(90)"><path
           d="m 37.016,-110.523 c 0,7.828 -6.344,14.175 -14.172,14.175 -7.828,0 -14.172,-6.347 -14.172,-14.175 0,-7.829 6.344,-14.172 14.172,-14.172 7.828,0 14.172,6.343 14.172,14.172 z"
           style="fill:none;stroke:#000000;stroke-width:2.83492303;stroke-linecap:round;stroke-linejoin:round;stroke-miterlimit:4;stroke-dasharray:none;stroke-opacity:1"
           id="path56"
           inkscape:connector-curvature="0" /></g><g
         id="g58"><path
           d="m 103.438,10.617 c 0,0 0,18.426 0,18.426 0,0 7.085,-11.34 7.085,-11.34 0,0 7.086,11.34 7.086,11.34 0,0 0,-18.426 0,-18.426"
           style="fill:none;stroke:#000000;stroke-width:1.41732299;stroke-linecap:round;stroke-linejoin:round;stroke-miterlimit:4;stroke-dasharray:none;stroke-opacity:1"
           id="path60"
           inkscape:connector-curvature="0" /></g><g
         id="g62"><path
           d="m 103.438,10.621 c 0,0 0,-9.902 0,-9.902"
           style="fill:none;stroke:#000000;stroke-width:1.41732299;stroke-linecap:round;stroke-linejoin:round;stroke-miterlimit:4;stroke-dasharray:none;stroke-opacity:1"
           id="path64"
           inkscape:connector-curvature="0" /></g><g
         id="g66"><path
           d="m 117.609,10.621 c 0,0 0,-9.902 0,-9.902"
           style="fill:none;stroke:#000000;stroke-width:1.41732299;stroke-linecap:round;stroke-linejoin:round;stroke-miterlimit:4;stroke-dasharray:none;stroke-opacity:1"
           id="path68"
           inkscape:connector-curvature="0" /></g><g
         id="g70"
         transform="matrix(0.017972,1,-1,0.017972,0,0)"><path
           d="m 197.103,-178.102 c 0,7.828 -6.344,14.171 -14.169,14.171 -7.828,0 -14.171,-6.345 -14.171,-14.169 0,-7.828 6.345,-14.171 14.169,-14.171 7.828,0 14.171,6.345 14.171,14.169 z"
           style="fill:none;stroke:#000000;stroke-width:2.83418798;stroke-linecap:round;stroke-linejoin:round;stroke-miterlimit:4;stroke-dasharray:none;stroke-opacity:1"
           id="path72"
           inkscape:connector-curvature="0" /></g><g
         id="g74"><path
           d="m 172.086,191.391 5.535,-25.129"
           style="fill:none;stroke:#000000;stroke-width:0.943937;stroke-linecap:round;stroke-linejoin:round;stroke-miterlimit:4;stroke-dasharray:none;stroke-opacity:1"
           id="path76"
           inkscape:connector-curvature="0" /></g><g
         id="g78"><path
           d="m 190.691,191.391 -5.535,-25.129"
           style="fill:none;stroke:#000000;stroke-width:0.943937;stroke-linecap:round;stroke-linejoin:round;stroke-miterlimit:4;stroke-dasharray:none;stroke-opacity:1"
           id="path80"
           inkscape:connector-curvature="0" /></g><g
         id="g82"><path
           d="m 181.387,165.559 c 0,0 0,-42.508 0,-42.508 0,0 -127.559,0 -127.559,0"
           style="fill:none;stroke:#000000;stroke-width:1.41732299;stroke-linecap:butt;stroke-linejoin:miter;stroke-miterlimit:4;stroke-dasharray:none;stroke-opacity:1"
           id="path84"
           inkscape:connector-curvature="0" /></g><g
         id="g86"><path
           d="m 181.387,123.051 c 0,0 0,-42.531 0,-42.531"
           style="fill:none;stroke:#000000;stroke-width:1.41732299;stroke-linecap:butt;stroke-linejoin:miter;stroke-miterlimit:4;stroke-dasharray:none;stroke-opacity:1"
           id="path88"
           inkscape:connector-curvature="0" /></g><g
         id="g90"
         transform="rotate(90)"><path
           d="m 136.961,-39.656 c 0,7.828 -6.348,14.172 -14.172,14.172 -7.828,0 -14.176,-6.344 -14.176,-14.172 0,-7.828 6.348,-14.172 14.176,-14.172 7.824,0 14.172,6.344 14.172,14.172 z"
           style="fill:none;stroke:#000000;stroke-width:2.83464599;stroke-linecap:round;stroke-linejoin:round;stroke-miterlimit:4;stroke-dasharray:none;stroke-opacity:1"
           id="path92"
           inkscape:connector-curvature="0" /></g><g
         id="g94"><path
           d="m 25.434,122.789 14.222,-9.301 v 18.598 l 14.223,-9.297"
           style="fill:none;stroke:#000000;stroke-width:1.41732299;stroke-linecap:round;stroke-linejoin:round;stroke-miterlimit:4;stroke-dasharray:none;stroke-opacity:1"
           id="path96"
           inkscape:connector-curvature="0" /></g><g
         id="g98"
         transform="scale(0.999285,1)"><path
           d="m 25.491,123.051 c 0,0 -14.174,0 -14.174,0 0,0 0,-42.77 0,-42.77"
           style="fill:none;stroke:#000000;stroke-width:1.41782999;stroke-linecap:round;stroke-linejoin:miter;stroke-miterlimit:4;stroke-dasharray:none;stroke-opacity:1"
           id="path100"
           inkscape:connector-curvature="0" /></g><g
         id="g102"
         transform="scale(1,0.999996)"><path
           d="M 44.395,165.61 H 34.918"
           style="fill:none;stroke:#000000;stroke-width:2.83465099;stroke-linecap:round;stroke-linejoin:round;stroke-miterlimit:4;stroke-dasharray:none;stroke-opacity:1"
           id="path104"
           inkscape:connector-curvature="0" /></g><g
         id="g106"
         transform="scale(1,0.999996)"><path
           d="m 34.918,165.61 14.184,28.309"
           style="fill:none;stroke:#000000;stroke-width:2.83465099;stroke-linecap:round;stroke-linejoin:round;stroke-miterlimit:4;stroke-dasharray:none;stroke-opacity:1"
           id="path108"
           inkscape:connector-curvature="0" /></g><g
         id="g110"
         transform="scale(1,0.999996)"><path
           d="M 44.395,165.61 30.211,193.919"
           style="fill:none;stroke:#000000;stroke-width:2.83465099;stroke-linecap:round;stroke-linejoin:round;stroke-miterlimit:4;stroke-dasharray:none;stroke-opacity:1"
           id="path112"
           inkscape:connector-curvature="0" /></g><g
         id="g114"
         transform="scale(1,0.999996)"><path
           d="M 49.102,193.919 H 30.211"
           style="fill:none;stroke:#000000;stroke-width:2.83465099;stroke-linecap:round;stroke-linejoin:round;stroke-miterlimit:4;stroke-dasharray:none;stroke-opacity:1"
           id="path116"
           inkscape:connector-curvature="0" /></g><g
         id="g118"><path
           d="m 39.656,23.59 c 0,0 0,85.039 0,85.039"
           style="fill:none;stroke:#000000;stroke-width:1.41732299;stroke-linecap:butt;stroke-linejoin:miter;stroke-miterlimit:4;stroke-dasharray:none;stroke-opacity:1"
           id="path120"
           inkscape:connector-curvature="0" /></g><g
         id="g122"><path
           d="m 82.309,208.07 c 7.796,0 14.156,6.36 14.156,14.219 0,7.801 -6.36,14.16 -14.156,14.16 -7.864,0 -14.161,-6.359 -14.161,-14.16 0,-7.859 6.297,-14.219 14.161,-14.219 z"
           style="fill:none;stroke:#000000;stroke-width:2.81997895;stroke-linecap:round;stroke-linejoin:round;stroke-miterlimit:4;stroke-dasharray:none;stroke-opacity:1"
           id="path124"
           inkscape:connector-curvature="0" /></g><g
         id="g126"><path
           d="m 96.527,222.289 -14.218,9.301 v -18.602 l -14.223,9.301"
           style="fill:none;stroke:#000000;stroke-width:1.43998897;stroke-linecap:round;stroke-linejoin:round;stroke-miterlimit:4;stroke-dasharray:none;stroke-opacity:1"
           id="path128"
           inkscape:connector-curvature="0" /></g><g
         id="g130"><path
           d="m 89.387,235.008 v 9.902"
           style="fill:none;stroke:#000000;stroke-width:1.43998897;stroke-linecap:round;stroke-linejoin:round;stroke-miterlimit:4;stroke-dasharray:none;stroke-opacity:1"
           id="path132"
           inkscape:connector-curvature="0" /></g><g
         id="g134"><path
           d="m 75.227,235.008 v 9.902"
           style="fill:none;stroke:#000000;stroke-width:1.43998897;stroke-linecap:round;stroke-linejoin:round;stroke-miterlimit:4;stroke-dasharray:none;stroke-opacity:1"
           id="path136"
           inkscape:connector-curvature="0" /></g><g
         id="g138"><path
           d="m 96.465,222.289 h 28.32"
           style="fill:none;stroke:#000000;stroke-width:1.43998897;stroke-linecap:butt;stroke-linejoin:miter;stroke-miterlimit:4;stroke-dasharray:none;stroke-opacity:1"
           id="path140"
           inkscape:connector-curvature="0" /></g><g
         id="g142"><path
           d="m 139.008,236.449 c -7.863,0 -14.16,-6.359 -14.16,-14.16 0,-7.859 6.297,-14.219 14.16,-14.219 7.797,0 14.16,6.36 14.16,14.219 0,7.801 -6.363,14.16 -14.16,14.16 z"
           style="fill:none;stroke:#000000;stroke-width:2.81997895;stroke-linecap:round;stroke-linejoin:round;stroke-miterlimit:4;stroke-dasharray:none;stroke-opacity:1"
           id="path144"
           inkscape:connector-curvature="0" /></g><g
         id="g146"><path
           d="m 124.785,222.289 14.223,-9.301 v 18.602 l 14.219,-9.301"
           style="fill:none;stroke:#000000;stroke-width:1.43998897;stroke-linecap:round;stroke-linejoin:round;stroke-miterlimit:4;stroke-dasharray:none;stroke-opacity:1"
           id="path148"
           inkscape:connector-curvature="0" /></g><g
         id="g150"><path
           d="M 146.086,209.508 V 143.461 H 75.941 v -14.457 c -5.671,-2.832 -5.671,-8.504 0,-11.336 V 23.977 l 20.407,-0.149"
           style="fill:none;stroke:#000000;stroke-width:1.43998897;stroke-linecap:round;stroke-linejoin:round;stroke-miterlimit:4;stroke-dasharray:none;stroke-opacity:1"
           id="path152"
           inkscape:connector-curvature="0" /></g><g
         id="g154"><path
           d="m 39.656,165.574 c 0,0 0,-29.14 0,-29.14"
           style="fill:none;stroke:#000000;stroke-width:1.41732299;stroke-linecap:butt;stroke-linejoin:miter;stroke-miterlimit:4;stroke-dasharray:none;stroke-opacity:1"
           id="path156"
           inkscape:connector-curvature="0" /></g><g
         id="g158"><path
           d="m 131.914,209.203 v -51.57 H 61.766 v -28.344 c -5.668,-2.836 -5.668,-8.504 0,-11.34 V 23.902 l -50.457,0.149 v 27.851"
           style="fill:none;stroke:#000000;stroke-width:1.41732299;stroke-linecap:round;stroke-linejoin:round;stroke-miterlimit:4;stroke-dasharray:none;stroke-opacity:1"
           id="path160"
           inkscape:connector-curvature="0" /></g></g></g></svg>