<?xml version="1.0" encoding="UTF-8" standalone="no"?>
<svg
   id="Ebene_4"
   viewBox="0 0 1290.8249 113.44503"
   version="1.1"
   sodipodi:docname="Logo_ZNES_mitUnisV2_dark.svg"
   width="1290.825"
   height="113.44504"
   inkscape:version="1.2.2 (732a01da63, 2022-12-09)"
   xmlns:inkscape="http://www.inkscape.org/namespaces/inkscape"
   xmlns:sodipodi="http://sodipodi.sourceforge.net/DTD/sodipodi-0.dtd"
   xmlns="http://www.w3.org/2000/svg"
   xmlns:svg="http://www.w3.org/2000/svg">
  <sodipodi:namedview
     id="namedview187"
     pagecolor="#ffffff"
     bordercolor="#666666"
     borderopacity="1.0"
     inkscape:showpageshadow="2"
     inkscape:pageopacity="0.0"
     inkscape:pagecheckerboard="0"
     inkscape:deskcolor="#d1d1d1"
     showgrid="false"
     inkscape:zoom="1"
     inkscape:cx="679"
     inkscape:cy="-42"
     inkscape:window-width="2560"
     inkscape:window-height="1377"
     inkscape:window-x="1912"
     inkscape:window-y="-8"
     inkscape:window-maximized="1"
     inkscape:current-layer="Ebene_4" />
  <defs
     id="defs4">
    <style
       id="style2">.cls-1{fill:#333;}.cls-1,.cls-2,.cls-3,.cls-4{stroke-width:0px;}.cls-2{fill:#ec6608;}.cls-3{fill:#16355b;}.cls-4{fill:#bfbfbf;}</style>
  </defs>
  <polygon
     class="cls-1"
     points="257.81,75.64 257.81,82.1 307.96,82.17 308.03,71.71 273.33,71.84 307.63,21.63 307.56,14.9 258.71,14.92 258.71,25.23 291.98,25.23 "
     id="polygon6"
     transform="matrix(1.1474583,0,0,1.1474583,-90.111072,1.3192768)"
     style="fill:#f9f9f9;fill-opacity:1" />
  <path
     class="cls-1"
     d="m 268.81388,18.393456 v 77.18952 l 13.41379,-0.08032 c 0,0 -0.19507,-57.223745 -0.0803,-57.005728 6.77,13.723601 36.64982,57.005728 36.64982,57.005728 h 14.25143 l 0.0803,-77.18952 -13.66623,0.08032 0.677,56.913932 c 0,0 -15.45626,-25.726015 -37.24649,-57.005728 -0.12622,-0.172119 -14.07932,0.08032 -14.07932,0.08032 z"
     id="path8"
     style="fill:#f9f9f9;fill-opacity:1" />
  <polygon
     class="cls-1"
     points="388.63,52.89 414.1,52.89 414.1,42.51 388.61,42.51 388.61,25.14 418.36,25.14 418.36,14.86 376.86,14.91 376.86,82.15 419.93,82.1 419.98,71.83 388.63,71.83 "
     id="polygon10"
     transform="matrix(1.1474583,0,0,1.1474583,-90.111072,1.3192768)"
     style="fill:#f9f9f9;fill-opacity:1" />
  <path
     class="cls-1"
     d="m 444.32911,21.376848 v 11.933566 c 0,0 -5.24389,-2.386713 -11.93357,-3.717765 -9.54685,-1.904781 -22.05415,-1.893306 -22.74262,8.674785 -1.26221,19.231401 38.33658,4.199697 38.00381,34.515546 -0.17211,15.789026 -10.30417,25.335879 -34.61881,23.981878 -8.9387,-0.493407 -11.48606,-1.858882 -17.56759,-4.452138 -0.0229,0 0,-12.048312 0,-12.048312 0,0 10.64841,5.347155 20.94111,4.842274 6.83886,-0.332763 16.89059,-1.10156 17.56759,-11.14182 0.61963,-9.156718 -10.05173,-10.132057 -17.22335,-11.71555 -6.8159,-1.491695 -22.22626,-5.347155 -20.72309,-23.419623 1.54906,-18.57735 16.71846,-22.627878 29.27166,-21.847606 13.40231,0.837644 19.02486,4.394765 19.02486,4.394765 z"
     id="path12"
     style="fill:#f9f9f9;fill-opacity:1" />
  <path
     class="cls-2"
     d="M 15.710479,40.34624 8,79.535206 c 0,0 1.8301446,13.192954 12.803055,18.030901 13.455542,5.928073 23.386065,3.135113 35.536634,-4.44009 13.479413,-8.410706 38.409166,-33.706487 38.409166,-33.706487 0,0 -29.521029,17.505731 -57.872356,6.53282 C 16.641465,58.122514 15.710479,40.34624 15.710479,40.34624 Z"
     id="path32" />
  <path
     class="cls-3"
     d="m 179.40498,76.400089 7.83779,-43.239156 c 0,0 -0.8912,-12.803055 -11.78454,-17.808103 -13.36005,-6.134963 -23.33036,-3.501146 -35.60029,3.875132 -13.61468,8.195865 -40.971367,35.727606 -40.971367,35.727606 0,0 30.356527,-20.601063 59.877557,-8.99158 20.31461,7.988979 20.64085,30.436101 20.64085,30.436101 z"
     id="path34" />
  <path
     class="cls-4"
     d="m 85.606089,74.410801 c 0,0 7.447893,-8.036722 15.675591,-14.497928 9.95439,-7.821879 24.1022,-11.362811 24.1022,-11.362811 0,0 15.1902,10.089667 26.05967,11.657225 9.43718,1.360673 16.85325,-0.883243 16.85325,-0.883243 0,0 13.32822,14.991271 4.60719,30.181472 C 167.6841,98.59258 155.75633,102.7303 141.84723,101.75157 118.63622,100.12035 85.606089,74.418758 85.606089,74.418758 Z"
     id="path36" />
  <path
     class="cls-4"
     d="m 108.8728,38.874167 c 0,0 -7.37628,8.092422 -15.556232,14.6332 -9.890738,7.90145 -24.006723,11.561739 -24.006723,11.561739 0,0 -15.269772,-9.962352 -26.155154,-11.442382 -9.453095,-1.281101 -16.845288,1.018515 -16.845288,1.018515 0,0 -13.447584,-14.879871 -4.853862,-30.141686 5.14032,-9.134809 17.03626,-13.368013 30.961273,-12.500683 23.218965,1.440244 56.463936,26.871297 56.463936,26.871297 z"
     id="path38" />
  <path
     class="cls-1"
     d="m 466.1312,44.609814 14.18294,-22.054383 h -12.90988 v -2.922653 h 17.2311 v 2.061995 l -14.2188,22.054382 h 14.34432 v 2.922654 H 466.1312 Z"
     id="path40"
     style="fill:#f9f9f9;fill-opacity:1" />
  <path
     class="cls-1"
     d="m 490.21172,19.632778 h 15.58151 v 2.922653 h -12.12095 v 8.445215 h 10.22033 V 33.9233 h -10.22033 v 9.807924 h 12.53335 v 2.922654 H 490.21172 V 19.614847 Z"
     id="path42"
     style="fill:#f9f9f9;fill-opacity:1" />
  <path
     class="cls-1"
     d="m 511.94335,19.632778 h 3.71159 l 9.64655,16.872498 c 1.03997,1.81097 1.97235,3.837104 2.92266,5.809447 h 0.16137 c -0.19723,-2.797141 -0.44826,-5.773586 -0.44826,-8.570727 V 19.650708 h 3.26333 V 46.689739 H 527.489 L 517.84245,29.81724 c -1.02203,-1.810969 -2.02613,-3.837104 -2.92265,-5.809447 h -0.16138 c 0.21517,2.72542 0.44826,5.648074 0.44826,8.445215 v 14.218801 h -3.26333 z"
     id="path44"
     style="fill:#f9f9f9;fill-opacity:1" />
  <path
     class="cls-1"
     d="m 544.1822,22.555431 h -8.15833 v -2.922653 h 19.83101 v 2.922653 h -8.21212 v 24.116378 h -3.46056 z"
     id="path46"
     style="fill:#f9f9f9;fill-opacity:1" />
  <path
     class="cls-1"
     d="m 560.67816,19.632778 h 8.44521 c 5.52256,0 9.48518,1.972343 9.48518,7.620416 0,4.213642 -2.38474,6.688036 -6.06047,7.620417 l 6.88527,11.798198 h -3.90883 l -6.50873,-11.42166 h -4.85914 v 11.42166 h -3.46056 V 19.632778 Z m 7.96109,12.82023 c 4.21364,0 6.50873,-1.739248 6.50873,-5.199814 0,-3.460565 -2.31302,-4.823275 -6.50873,-4.823275 h -4.50053 v 10.023089 z"
     id="path48"
     style="fill:#f9f9f9;fill-opacity:1" />
  <path
     class="cls-1"
     d="M 584.07732,35.501175 V 19.632778 h 3.46056 v 15.958048 c 0,6.472872 2.72542,8.534867 6.27564,8.534867 3.55022,0 6.38322,-2.061995 6.38322,-8.534867 V 19.632778 h 3.33505 v 15.868397 c 0,8.660379 -4.21364,11.672685 -9.7362,11.672685 -5.52256,0 -9.7362,-3.012306 -9.7362,-11.672685 z"
     id="path50"
     style="fill:#f9f9f9;fill-opacity:1" />
  <path
     class="cls-1"
     d="m 610.7936,19.632778 h 4.32123 l 5.11016,14.469826 c 0.66342,1.900621 1.2372,3.621939 1.81097,5.648073 h 0.16137 c 0.60964,-2.026134 1.11169,-3.747452 1.77511,-5.648073 l 5.11016,-14.469826 h 4.33916 v 27.039031 h -3.26333 V 31.753723 c 0,-2.384743 0.28688,-5.737726 0.50205,-8.086607 h -0.16138 l -2.09785,6.311498 -5.0743,13.967775 h -2.51026 l -5.03844,-13.967775 -2.15165,-6.311498 h -0.16137 c 0.21517,2.348881 0.50205,5.683934 0.50205,8.086607 v 14.918086 h -3.17368 z"
     id="path52"
     style="fill:#f9f9f9;fill-opacity:1" />
  <path
     class="cls-1"
     d="m 649.05706,19.632778 h 15.58151 v 2.922653 h -12.12095 v 9.10864 h 10.30998 v 2.922654 h -10.30998 v 12.085084 h -3.46056 z"
     id="path54"
     style="fill:#f9f9f9;fill-opacity:1" />
  <path
     class="cls-1"
     d="M 669.35426,35.501175 V 19.632778 h 3.46057 v 15.958048 c 0,6.472872 2.72542,8.534867 6.27564,8.534867 3.55021,0 6.38322,-2.061995 6.38322,-8.534867 V 19.632778 h 3.33505 v 15.868397 c 0,8.660379 -4.21364,11.672685 -9.7362,11.672685 -5.52257,0 -9.73621,-3.012306 -9.73621,-11.672685 z m 3.42471,-20.333065 c 0,-1.201336 0.86066,-2.061995 2.02613,-2.061995 1.16548,0 2.02614,0.860659 2.02614,2.061995 0,1.201336 -0.8248,2.026134 -2.02614,2.026134 -1.20133,0 -2.02613,-0.860659 -2.02613,-2.026134 z m 8.48107,0 c 0,-1.201336 0.8248,-2.061995 2.02614,-2.061995 1.20133,0 2.02613,0.860659 2.02613,2.061995 0,1.201336 -0.86066,2.026134 -2.02613,2.026134 -1.16548,0 -2.02614,-0.860659 -2.02614,-2.026134 z"
     id="path56"
     style="fill:#f9f9f9;fill-opacity:1" />
  <path
     class="cls-1"
     d="m 696.10641,19.632778 h 8.44521 c 5.52256,0 9.48518,1.972343 9.48518,7.620416 0,4.213642 -2.38474,6.688036 -6.06047,7.620417 l 6.88527,11.798198 h -3.90883 l -6.50873,-11.42166 h -4.85914 v 11.42166 h -3.46056 V 19.632778 Z m 7.96109,12.82023 c 4.21364,0 6.50873,-1.739248 6.50873,-5.199814 0,-3.460565 -2.31302,-4.823275 -6.50873,-4.823275 h -4.50053 v 10.023089 z"
     id="path58"
     style="fill:#f9f9f9;fill-opacity:1" />
  <path
     class="cls-1"
     d="m 727.86113,19.632778 h 3.71159 l 9.64655,16.872498 c 1.03997,1.81097 1.97235,3.837104 2.92266,5.809447 h 0.16137 c -0.19723,-2.797141 -0.44826,-5.773586 -0.44826,-8.570727 V 19.650708 h 3.26333 v 27.039031 h -3.71159 L 733.76023,29.81724 c -1.02203,-1.810969 -2.02613,-3.837104 -2.92265,-5.809447 h -0.16138 c 0.21517,2.72542 0.44826,5.648074 0.44826,8.445215 v 14.218801 h -3.26333 z"
     id="path60"
     style="fill:#f9f9f9;fill-opacity:1" />
  <path
     class="cls-1"
     d="m 760.02826,19.632778 h 3.96261 l 9.10864,27.039031 h -3.67573 l -2.56405,-8.21212 h -9.86171 l -2.59991,8.21212 h -3.49642 l 9.10863,-27.039031 z m -2.09786,16.02977 h 8.08661 l -1.27306,-4.088129 c -0.98617,-3.012306 -1.86476,-5.970821 -2.72542,-9.108639 h -0.16137 c -0.8248,3.137818 -1.68546,6.096333 -2.63577,9.108639 l -1.27306,4.088129 z"
     id="path62"
     style="fill:#f9f9f9;fill-opacity:1" />
  <path
     class="cls-1"
     d="m 774.96427,33.152293 c 0,-8.69624 5.11016,-14.021566 11.99543,-14.021566 3.2992,0 5.84531,1.559944 7.45905,3.335053 l -1.90062,2.151647 c -1.43444,-1.488223 -3.20954,-2.438534 -5.52257,-2.438534 -5.0743,0 -8.44521,4.159851 -8.44521,10.883748 0,6.723897 3.20954,11.045122 8.3197,11.045122 2.59991,0 4.53639,-1.039963 6.27564,-2.922654 l 1.90062,2.061995 c -2.18751,2.510255 -4.82327,3.908825 -8.28384,3.908825 -6.75976,0 -11.7982,-5.199813 -11.7982,-14.021566 z"
     id="path64"
     style="fill:#f9f9f9;fill-opacity:1" />
  <path
     class="cls-1"
     d="m 800.08475,19.632778 h 3.46057 v 11.296147 h 12.53334 V 19.632778 h 3.46057 v 27.039031 h -3.46057 V 33.977091 h -12.53334 v 12.694718 h -3.46057 z"
     id="path66"
     style="fill:#f9f9f9;fill-opacity:1" />
  <path
     class="cls-1"
     d="m 826.96241,19.632778 h 3.46056 v 11.296147 h 12.53335 V 19.632778 h 3.46056 v 27.039031 h -3.46056 V 33.977091 h -12.53335 v 12.694718 h -3.46056 z"
     id="path68"
     style="fill:#f9f9f9;fill-opacity:1" />
  <path
     class="cls-1"
     d="m 859.38056,19.632778 h 3.96261 l 9.10864,27.039031 h -3.67573 l -2.56404,-8.21212 h -9.86172 l -2.59991,8.21212 h -3.49642 l 9.10864,-27.039031 z m -2.09786,16.02977 h 8.08661 l -1.27306,-4.088129 c -0.98617,-3.012306 -1.86476,-5.970821 -2.72542,-9.108639 h -0.16137 c -0.8248,3.137818 -1.68546,6.096333 -2.63577,9.108639 l -1.27306,4.088129 z"
     id="path70"
     style="fill:#f9f9f9;fill-opacity:1" />
  <path
     class="cls-1"
     d="m 876.28892,19.632778 h 3.46056 v 24.116377 h 11.7982 v 2.922654 h -15.25876 z"
     id="path72"
     style="fill:#f9f9f9;fill-opacity:1" />
  <path
     class="cls-1"
     d="m 896.99852,22.555431 h -8.15833 v -2.922653 h 19.83101 v 2.922653 h -8.21211 v 24.116378 h -3.46057 z"
     id="path74"
     style="fill:#f9f9f9;fill-opacity:1" />
  <path
     class="cls-1"
     d="m 913.49448,19.632778 h 3.46057 v 27.039031 h -3.46057 z"
     id="path76"
     style="fill:#f9f9f9;fill-opacity:1" />
  <path
     class="cls-1"
     d="m 922.76449,33.152293 c 0,-8.69624 5.23568,-14.021566 12.40783,-14.021566 3.74746,0 6.22185,1.649596 7.79972,3.335053 l -1.90062,2.151647 c -1.36271,-1.398571 -3.08402,-2.438534 -5.80944,-2.438534 -5.45084,0 -8.91141,4.159851 -8.91141,10.883748 0,6.723897 3.17368,11.045122 8.94727,11.045122 1.93648,0 3.80124,-0.573773 4.85913,-1.559944 v -7.046644 h -5.73772 v -2.850933 h 8.9114 v 11.385799 c -1.77511,1.81097 -4.73362,3.137819 -8.37349,3.137819 -7.1363,0 -12.2106,-5.199814 -12.2106,-14.021567 z"
     id="path78"
     style="fill:#f9f9f9;fill-opacity:1" />
  <path
     class="cls-1"
     d="m 949.78559,19.632778 h 15.58151 v 2.922653 h -12.12094 v 8.445215 h 10.22032 V 33.9233 h -10.22032 v 9.807924 h 12.53334 v 2.922654 H 949.78559 V 19.614847 Z"
     id="path80"
     style="fill:#f9f9f9;fill-opacity:1" />
  <path
     class="cls-1"
     d="m 979.76521,19.632778 h 15.58151 v 2.922653 h -12.12095 v 8.445215 H 993.4461 V 33.9233 h -10.22033 v 9.807924 h 12.53335 v 2.922654 H 979.76521 V 19.614847 Z"
     id="path82"
     style="fill:#f9f9f9;fill-opacity:1" />
  <path
     class="cls-1"
     d="m 1001.4968,19.632778 h 3.7116 l 9.6466,16.872498 c 1.0399,1.81097 1.9723,3.837104 2.9226,5.809447 h 0.1614 c -0.1972,-2.797141 -0.4482,-5.773586 -0.4482,-8.570727 V 19.650708 h 3.2633 v 27.039031 h -3.7116 l -9.6466,-16.872499 c -1.022,-1.810969 -2.0261,-3.837104 -2.9226,-5.809447 h -0.1614 c 0.2152,2.72542 0.4483,5.648074 0.4483,8.445215 v 14.218801 h -3.2634 z"
     id="path84"
     style="fill:#f9f9f9;fill-opacity:1" />
  <path
     class="cls-1"
     d="m 1028.1414,19.632778 h 15.5815 v 2.922653 h -12.1209 v 8.445215 h 10.2203 V 33.9233 h -10.2203 v 9.807924 h 12.5333 v 2.922654 h -15.9939 V 19.614847 Z"
     id="path86"
     style="fill:#f9f9f9;fill-opacity:1" />
  <path
     class="cls-1"
     d="m 1049.873,19.632778 h 8.4453 c 5.5225,0 9.4851,1.972343 9.4851,7.620416 0,4.213642 -2.3847,6.688036 -6.0604,7.620417 l 6.8852,11.798198 h -3.9088 l -6.5087,-11.42166 h -4.8592 v 11.42166 h -3.4605 V 19.632778 Z m 7.9432,12.82023 c 4.2136,0 6.5087,-1.739248 6.5087,-5.199814 0,-3.460565 -2.313,-4.823275 -6.5087,-4.823275 h -4.5005 v 10.023089 z"
     id="path88"
     style="fill:#f9f9f9;fill-opacity:1" />
  <path
     class="cls-1"
     d="m 1071.8019,33.152293 c 0,-8.69624 5.2357,-14.021566 12.4078,-14.021566 3.7475,0 6.2219,1.649596 7.7998,3.335053 l -1.9007,2.151647 c -1.3627,-1.398571 -3.084,-2.438534 -5.8094,-2.438534 -5.4508,0 -8.9114,4.159851 -8.9114,10.883748 0,6.723897 3.1737,11.045122 8.9473,11.045122 1.9364,0 3.8012,-0.573773 4.8591,-1.559944 v -7.046644 h -5.7377 v -2.850933 h 8.9114 v 11.385799 c -1.7751,1.81097 -4.7337,3.137819 -8.3735,3.137819 -7.1363,0 -12.2106,-5.199814 -12.2106,-14.021567 z"
     id="path90"
     style="fill:#f9f9f9;fill-opacity:1" />
  <path
     class="cls-1"
     d="m 1098.823,19.632778 h 3.4606 v 27.039031 h -3.4606 z"
     id="path92"
     style="fill:#f9f9f9;fill-opacity:1" />
  <path
     class="cls-1"
     d="m 1109.6709,19.632778 h 15.5815 v 2.922653 h -12.1209 v 8.445215 h 10.2203 V 33.9233 h -10.2203 v 9.807924 h 12.5333 v 2.922654 h -15.9939 V 19.614847 Z"
     id="path94"
     style="fill:#f9f9f9;fill-opacity:1" />
  <path
     class="cls-1"
     d="m 1129.4123,43.121591 1.9364,-2.259229 c 1.9724,2.026134 4.7337,3.263331 7.5846,3.263331 3.5502,0 5.6481,-1.775109 5.6481,-4.375016 0,-2.76128 -1.9724,-3.621939 -4.5006,-4.733623 l -3.9088,-1.739248 c -2.5102,-1.075824 -5.4508,-2.976445 -5.4508,-6.974923 0,-3.998477 3.5861,-7.172156 8.499,-7.172156 3.2992,0 6.0963,1.362709 7.9969,3.263331 l -1.9006,2.313021 c -1.6496,-1.559945 -3.7474,-2.510255 -6.0963,-2.510255 -3.0123,0 -4.9847,1.524083 -4.9847,3.908825 0,2.599907 2.3489,3.586078 4.4468,4.446737 l 3.8729,1.685457 c 3.1379,1.326849 5.5585,3.20954 5.5585,7.208018 0,4.285363 -3.5503,7.710068 -9.2342,7.710068 -3.873,0 -7.1363,-1.524083 -9.4852,-4.034338 z"
     id="path96"
     style="fill:#f9f9f9;fill-opacity:1" />
  <path
     class="cls-1"
     d="m 1157.2044,36.20046 -8.1225,-16.567682 h 3.7116 l 3.4606,7.620416 c 0.8606,1.972343 1.6854,3.872965 2.6357,5.899099 h 0.1614 c 0.9144,-2.026134 1.8468,-3.908825 2.6716,-5.899099 l 3.4606,-7.620416 h 3.6219 l -8.1583,16.567682 v 10.471349 h -3.4606 V 36.20046 Z"
     id="path98"
     style="fill:#f9f9f9;fill-opacity:1" />
  <path
     class="cls-1"
     d="m 1169.8274,43.121591 1.9364,-2.259229 c 1.9724,2.026134 4.7337,3.263331 7.5846,3.263331 3.5502,0 5.6481,-1.775109 5.6481,-4.375016 0,-2.76128 -1.9724,-3.621939 -4.5006,-4.733623 l -3.9088,-1.739248 c -2.5102,-1.075824 -5.4508,-2.976445 -5.4508,-6.974923 0,-3.998477 3.5861,-7.172156 8.499,-7.172156 3.2992,0 6.0963,1.362709 7.9969,3.263331 l -1.9006,2.313021 c -1.6496,-1.559945 -3.7474,-2.510255 -6.0963,-2.510255 -3.0123,0 -4.9847,1.524083 -4.9847,3.908825 0,2.599907 2.3489,3.586078 4.4468,4.446737 l 3.8729,1.685457 c 3.1379,1.326849 5.5585,3.20954 5.5585,7.208018 0,4.285363 -3.5503,7.710068 -9.2342,7.710068 -3.873,0 -7.1363,-1.524083 -9.4852,-4.034338 z"
     id="path100"
     style="fill:#f9f9f9;fill-opacity:1" />
  <path
     class="cls-1"
     d="m 1198.6236,22.555431 h -8.1584 v -2.922653 h 19.8311 v 2.922653 h -8.2122 v 24.116378 h -3.4605 z"
     id="path102"
     style="fill:#f9f9f9;fill-opacity:1" />
  <path
     class="cls-1"
     d="m 1215.1195,19.632778 h 15.5815 v 2.922653 h -12.1209 v 8.445215 h 10.2203 V 33.9233 h -10.2203 v 9.807924 h 12.5333 v 2.922654 h -15.9939 V 19.614847 Z"
     id="path104"
     style="fill:#f9f9f9;fill-opacity:1" />
  <path
     class="cls-1"
     d="m 1236.8153,19.632778 h 4.3212 l 5.1102,14.469826 c 0.6634,1.900621 1.2372,3.621939 1.811,5.648073 h 0.1613 c 0.6097,-2.026134 1.1117,-3.747452 1.7751,-5.648073 l 5.1102,-14.469826 h 4.3392 v 27.039031 h -3.2634 V 31.753723 c 0,-2.384743 0.2869,-5.737726 0.5021,-8.086607 h -0.1614 l -2.0978,6.311498 -5.0743,13.967775 h -2.5103 l -5.0384,-13.967775 -2.1517,-6.311498 h -0.1614 c 0.2152,2.348881 0.5021,5.683934 0.5021,8.086607 v 14.918086 h -3.1737 z"
     id="path106"
     style="fill:#f9f9f9;fill-opacity:1" />
  <path
     class="cls-1"
     d="m 1266.8308,19.632778 h 15.5815 v 2.922653 h -12.1209 v 8.445215 h 10.2203 V 33.9233 h -10.2203 v 9.807924 h 12.5333 v 2.922654 h -15.9939 V 19.614847 Z"
     id="path108"
     style="fill:#f9f9f9;fill-opacity:1" />
  <path
     class="cls-1"
     d="m 467.02772,67.578646 h 5.73773 v 9.108639 h 7.9073 v -9.108639 h 5.70186 v 23.919143 h -5.70186 v -9.843785 h -7.9073 v 9.843785 h -5.73773 z"
     id="path110"
     style="fill:#f9f9f9;fill-opacity:1" />
  <path
     class="cls-1"
     d="m 490.76756,79.448565 c 0,-7.871442 4.44674,-12.318179 10.95547,-12.318179 6.50873,0 10.95547,4.482598 10.95547,12.318179 0,7.835582 -4.44674,12.497484 -10.95547,12.497484 -6.50873,0 -10.95547,-4.661902 -10.95547,-12.497484 z m 16.06563,0 c 0,-4.661902 -1.95441,-7.387321 -5.11016,-7.387321 -3.15575,0 -5.11016,2.725419 -5.11016,7.387321 0,4.661902 1.99027,7.566626 5.11016,7.566626 3.11989,0 5.11016,-2.940585 5.11016,-7.566626 z"
     id="path112"
     style="fill:#f9f9f9;fill-opacity:1" />
  <path
     class="cls-1"
     d="m 516.01355,79.699591 c 0,-7.979025 5.36119,-12.569205 11.3858,-12.569205 3.11989,0 5.63014,1.398571 7.27974,3.119888 l -3.01231,3.460566 c -1.1834,-1.111684 -2.4206,-1.649596 -4.12399,-1.649596 -3.15575,0 -5.70186,2.797141 -5.70186,7.423182 0,4.626041 2.2413,7.530765 5.57635,7.530765 1.95441,0 3.46057,-0.771007 4.59018,-1.990274 l 2.97645,3.370914 c -2.09786,2.384742 -4.73363,3.532287 -7.74593,3.532287 -6.09634,0 -11.24236,-4.159851 -11.24236,-12.228527 z"
     id="path114"
     style="fill:#f9f9f9;fill-opacity:1" />
  <path
     class="cls-1"
     d="m 538.55205,67.578646 h 5.73773 v 9.108639 h 7.9073 v -9.108639 h 5.70187 v 23.919143 h -5.70187 v -9.843785 h -7.9073 v 9.843785 h -5.73773 z"
     id="path116"
     style="fill:#f9f9f9;fill-opacity:1" />
  <path
     class="cls-1"
     d="m 561.89742,88.449622 3.01231,-3.711591 c 1.68546,1.470292 3.99848,2.27716 6.02461,2.27716 2.16958,0 3.15575,-0.806868 3.15575,-2.097856 0,-1.398571 -1.29099,-1.8289 -3.37091,-2.689559 l -3.04817,-1.326849 c -2.52819,-0.986172 -4.85914,-3.084027 -4.85914,-6.544593 0,-3.998477 3.60401,-7.243878 8.67831,-7.243878 2.86887,0 5.70187,1.057893 7.74593,2.976445 l -2.97644,3.711591 c -1.61374,-1.147545 -3.26333,-1.757179 -4.76949,-1.757179 -1.75717,0 -2.90472,0.699286 -2.90472,1.954413 0,1.398571 1.50615,1.882691 3.63987,2.72542 l 2.97644,1.219266 c 2.97645,1.183406 4.73363,3.155749 4.73363,6.508733 0,3.998477 -3.35299,7.494904 -9.10864,7.494904 -3.22747,0 -6.43701,-1.111685 -8.92934,-3.496427 z"
     id="path118"
     style="fill:#f9f9f9;fill-opacity:1" />
  <path
     class="cls-1"
     d="m 582.80426,79.699591 c 0,-7.979025 5.36119,-12.569205 11.3858,-12.569205 3.11989,0 5.63014,1.398571 7.27974,3.119888 l -3.01231,3.460566 c -1.1834,-1.111684 -2.4206,-1.649596 -4.12399,-1.649596 -3.15575,0 -5.70186,2.797141 -5.70186,7.423182 0,4.626041 2.2413,7.530765 5.57635,7.530765 1.95441,0 3.46057,-0.771007 4.59018,-1.990274 l 2.97645,3.370914 c -2.09786,2.384742 -4.73363,3.532287 -7.74593,3.532287 -6.09634,0 -11.24236,-4.159851 -11.24236,-12.228527 z"
     id="path120"
     style="fill:#f9f9f9;fill-opacity:1" />
  <path
     class="cls-1"
     d="m 605.34276,67.578646 h 5.73773 v 9.108639 h 7.9073 v -9.108639 h 5.70187 v 23.919143 h -5.70187 v -9.843785 h -7.9073 v 9.843785 h -5.73773 z"
     id="path122"
     style="fill:#f9f9f9;fill-opacity:1" />
  <path
     class="cls-1"
     d="M 630.0867,80.255433 V 67.578646 h 5.70187 v 13.304351 c 0,4.554319 1.36271,6.132194 3.96262,6.132194 2.5999,0 4.07019,-1.577875 4.07019,-6.132194 V 67.578646 h 5.46877 v 12.676787 c 0,8.086607 -3.19161,11.690616 -9.55689,11.690616 -6.36529,0 -9.66449,-3.604009 -9.66449,-11.690616 z"
     id="path124"
     style="fill:#f9f9f9;fill-opacity:1" />
  <path
     class="cls-1"
     d="m 654.70513,67.578646 h 5.73773 v 19.149658 h 9.28794 v 4.769485 h -15.02567 z"
     id="path126"
     style="fill:#f9f9f9;fill-opacity:1" />
  <path
     class="cls-1"
     d="m 673.89065,67.578646 h 15.13325 v 4.769484 h -9.41345 v 4.482598 h 8.05074 v 4.769484 h -8.05074 v 5.110162 h 9.77206 v 4.769484 H 673.87272 V 67.560715 Z"
     id="path128"
     style="fill:#f9f9f9;fill-opacity:1" />
  <path
     class="cls-1"
     d="m 701.8262,63.938776 h 3.71159 v 36.739374 h -3.71159 z"
     id="path130"
     style="fill:#f9f9f9;fill-opacity:1" />
  <path
     class="cls-1"
     d="m 718.77042,67.578646 h 15.13325 v 4.769484 h -9.41345 v 4.482598 h 8.05074 v 4.769484 h -8.05074 v 5.110162 h 9.77206 v 4.769484 H 718.75249 V 67.560715 Z"
     id="path132"
     style="fill:#f9f9f9;fill-opacity:1" />
  <path
     class="cls-1"
     d="M 738.87039,80.255433 V 67.578646 h 5.70187 v 13.304351 c 0,4.554319 1.36271,6.132194 3.96261,6.132194 2.59991,0 4.0702,-1.577875 4.0702,-6.132194 V 67.578646 h 5.46877 v 12.676787 c 0,8.086607 -3.19161,11.690616 -9.5569,11.690616 -6.36529,0 -9.66448,-3.604009 -9.66448,-11.690616 z"
     id="path134"
     style="fill:#f9f9f9;fill-opacity:1" />
  <path
     class="cls-1"
     d="m 763.50675,67.578646 h 8.78589 c 5.0743,0 9.34174,1.757178 9.34174,7.530764 0,3.496427 -1.6496,5.737726 -4.10606,6.903201 l 5.32532,9.485178 h -6.40115 l -4.41087,-8.409354 h -2.79714 v 8.409354 h -5.73773 z m 8.33763,10.99133 c 2.72542,0 4.19572,-1.183406 4.19572,-3.460566 0,-2.277159 -1.4703,-3.012305 -4.19572,-3.012305 h -2.61783 v 6.472871 z"
     id="path136"
     style="fill:#f9f9f9;fill-opacity:1" />
  <path
     class="cls-1"
     d="m 785.11287,79.448565 c 0,-7.871442 4.44674,-12.318179 10.95547,-12.318179 6.50874,0 10.95547,4.482598 10.95547,12.318179 0,7.835582 -4.44673,12.497484 -10.95547,12.497484 -6.50873,0 -10.95547,-4.661902 -10.95547,-12.497484 z m 16.06563,0 c 0,-4.661902 -1.95441,-7.387321 -5.11016,-7.387321 -3.15575,0 -5.11016,2.725419 -5.11016,7.387321 0,4.661902 1.99028,7.566626 5.11016,7.566626 3.11989,0 5.11016,-2.940585 5.11016,-7.566626 z"
     id="path138"
     style="fill:#f9f9f9;fill-opacity:1" />
  <path
     class="cls-1"
     d="m 810.7354,67.578646 h 8.40936 c 5.2536,0 9.5569,1.864761 9.5569,7.745929 0,5.881169 -4.37502,8.23005 -9.41346,8.23005 h -2.833 v 7.943164 h -5.73773 V 67.578646 Z m 8.23005,11.45752 c 2.83301,0 4.15985,-1.326849 4.15985,-3.711591 0,-2.384742 -1.50615,-3.22747 -4.30329,-3.22747 h -2.34888 v 6.939061 z"
     id="path140"
     style="fill:#f9f9f9;fill-opacity:1" />
  <path
     class="cls-1"
     d="m 835.37176,67.578646 h 6.83148 l 7.45904,23.919143 h -6.02461 l -1.39857,-5.504631 h -7.10043 l -1.39857,5.504631 h -5.84531 l 7.45904,-23.919143 z m 0.87859,14.003636 h 4.895 l -0.51998,-2.061995 c -0.62757,-2.348881 -1.25513,-5.181883 -1.86476,-7.674208 h -0.14345 c -0.5917,2.492325 -1.21926,5.325327 -1.84683,7.674208 z"
     id="path142"
     style="fill:#f9f9f9;fill-opacity:1" />
  <path
     class="cls-1"
     d="m 850.98913,80.183711 h 9.07278 v 3.998478 h -9.07278 z"
     id="path144"
     style="fill:#f9f9f9;fill-opacity:1" />
  <path
     class="cls-1"
     d="M 864.29348,80.255433 V 67.578646 h 5.70187 v 13.304351 c 0,4.554319 1.36271,6.132194 3.96262,6.132194 2.5999,0 4.0702,-1.577875 4.0702,-6.132194 V 67.578646 h 5.46876 v 12.676787 c 0,8.086607 -3.19161,11.690616 -9.55689,11.690616 -6.36529,0 -9.66449,-3.604009 -9.66449,-11.690616 z"
     id="path146"
     style="fill:#f9f9f9;fill-opacity:1" />
  <path
     class="cls-1"
     d="m 889.64706,67.578646 h 5.91703 l 5.88117,11.45752 c 0.84273,1.613736 1.61373,3.532288 2.34888,5.397048 h 0.14344 c -0.28688,-2.564046 -0.73514,-5.988751 -0.73514,-8.821753 v -8.050746 h 5.39704 v 23.919143 h -5.88117 l -5.91702,-11.45752 c -0.80687,-1.613735 -1.57788,-3.532287 -2.31303,-5.397048 h -0.14344 c 0.28689,2.653698 0.73515,5.95289 0.73515,8.821753 v 8.050746 h -5.43291 z"
     id="path148"
     style="fill:#f9f9f9;fill-opacity:1" />
  <path
     class="cls-1"
     d="m 914.91098,67.578646 h 5.73773 v 23.919143 h -5.73773 z"
     id="path150"
     style="fill:#f9f9f9;fill-opacity:1" />
  <path
     class="cls-1"
     d="m 923.10517,67.578646 h 6.02461 l 2.59991,10.919609 c 0.66342,2.599906 1.1834,5.03844 1.88269,7.638347 h 0.14344 c 0.69929,-2.617838 1.21927,-5.038441 1.86476,-7.638347 l 2.86887,-10.919609 h 5.80944 l -7.3156,23.919143 h -6.86734 z"
     id="path152"
     style="fill:#f9f9f9;fill-opacity:1" />
  <path
     class="cls-1"
     d="m 946.77329,67.578646 h 15.13325 v 4.769484 h -9.41346 v 4.482598 h 8.05075 v 4.769484 h -8.05075 v 5.110162 h 9.77207 v 4.769484 H 946.75536 V 67.560715 Z"
     id="path154"
     style="fill:#f9f9f9;fill-opacity:1" />
  <path
     class="cls-1"
     d="m 966.99877,67.578646 h 8.78589 c 5.0743,0 9.34174,1.757178 9.34174,7.530764 0,3.496427 -1.6496,5.737726 -4.10606,6.903201 l 5.32532,9.485178 h -6.40115 l -4.41087,-8.409354 h -2.79714 v 8.409354 h -5.73773 z m 8.33763,10.99133 c 2.72542,0 4.19571,-1.183406 4.19571,-3.460566 0,-2.277159 -1.47029,-3.012305 -4.19571,-3.012305 h -2.61783 v 6.472871 z"
     id="path156"
     style="fill:#f9f9f9;fill-opacity:1" />
  <path
     class="cls-1"
     d="m 987.69044,88.449622 3.01231,-3.711591 c 1.68546,1.470292 3.99848,2.27716 6.02461,2.27716 2.16958,0 3.15575,-0.806868 3.15575,-2.097856 0,-1.398571 -1.29099,-1.8289 -3.37091,-2.689559 l -3.04817,-1.326849 c -2.52819,-0.986172 -4.85914,-3.084027 -4.85914,-6.544593 0,-3.998477 3.60401,-7.243878 8.67831,-7.243878 2.8689,0 5.7019,1.057893 7.7459,2.976445 l -2.9764,3.711591 c -1.6137,-1.147545 -3.26334,-1.757179 -4.7695,-1.757179 -1.75718,0 -2.90472,0.699286 -2.90472,1.954413 0,1.398571 1.50615,1.882691 3.63987,2.72542 l 2.97645,1.219266 c 2.9764,1.183406 4.7336,3.155749 4.7336,6.508733 0,3.998477 -3.353,7.494904 -9.10862,7.494904 -3.22747,0 -6.43701,-1.111685 -8.92934,-3.496427 z"
     id="path158"
     style="fill:#f9f9f9;fill-opacity:1" />
  <path
     class="cls-1"
     d="m 1010.4441,67.578646 h 5.7377 v 23.919143 h -5.7377 z"
     id="path160"
     style="fill:#f9f9f9;fill-opacity:1" />
  <path
     class="cls-1"
     d="m 1026.3484,72.34813 h -6.5088 v -4.769484 h 18.7014 v 4.769484 h -6.5087 v 19.149659 h -5.7019 V 72.34813 Z"
     id="path162"
     style="fill:#f9f9f9;fill-opacity:1" />
  <path
     class="cls-1"
     d="m 1044.4401,67.578646 h 6.8315 l 7.4591,23.919143 h -6.0247 l -1.3985,-5.504631 h -7.1005 l -1.3985,5.504631 h -5.8453 l 7.459,-23.919143 z m -3.4247,-4.410877 c 0,-1.506153 1.1117,-2.653698 2.6537,-2.653698 1.542,0 2.6896,1.147545 2.6896,2.653698 0,1.506153 -1.0938,2.689559 -2.6896,2.689559 -1.5958,0 -2.6537,-1.147545 -2.6537,-2.689559 z m 4.3033,18.414513 h 4.8771 l -0.52,-2.061995 c -0.6276,-2.348881 -1.2551,-5.181883 -1.8648,-7.674208 h -0.1434 c -0.5917,2.492325 -1.2193,5.325327 -1.8468,7.674208 l -0.52,2.061995 z m 3.8909,-18.414513 c 0,-1.506153 1.0938,-2.653698 2.6896,-2.653698 1.5958,0 2.6537,1.147545 2.6537,2.653698 0,1.506153 -1.1117,2.689559 -2.6537,2.689559 -1.542,0 -2.6896,-1.147545 -2.6896,-2.689559 z"
     id="path164"
     style="fill:#f9f9f9;fill-opacity:1" />
  <path
     class="cls-1"
     d="m 1063.1057,72.34813 h -6.5088 v -4.769484 h 18.7014 v 4.769484 h -6.5087 v 19.149659 h -5.7019 V 72.34813 Z"
     id="path166"
     style="fill:#f9f9f9;fill-opacity:1" />
  <path
     class="cls-1"
     d="m 1086.3435,67.578646 h 15.2767 v 4.769484 h -9.5569 v 5.217744 h 8.1583 v 4.769484 h -8.1583 v 9.1445 h -5.7378 V 67.560715 Z"
     id="path168"
     style="fill:#f9f9f9;fill-opacity:1" />
  <path
     class="cls-1"
     d="m 1105.7441,67.578646 h 5.7378 v 19.149658 h 9.2879 v 4.769485 h -15.0257 z"
     id="path170"
     style="fill:#f9f9f9;fill-opacity:1" />
  <path
     class="cls-1"
     d="m 1124.9297,67.578646 h 15.1332 v 4.769484 h -9.4134 v 4.482598 h 8.0507 v 4.769484 h -8.0507 v 5.110162 h 9.772 v 4.769484 h -15.5098 V 67.560715 Z"
     id="path172"
     style="fill:#f9f9f9;fill-opacity:1" />
  <path
     class="cls-1"
     d="m 1145.1551,67.578646 h 5.9171 l 5.8811,11.45752 c 0.8428,1.613736 1.6138,3.532288 2.3489,5.397048 h 0.1435 c -0.2869,-2.564046 -0.7352,-5.988751 -0.7352,-8.821753 v -8.050746 h 5.3971 v 23.919143 h -5.8812 l -5.917,-11.45752 c -0.8069,-1.613735 -1.5779,-3.532287 -2.313,-5.397048 h -0.1435 c 0.2869,2.653698 0.7352,5.95289 0.7352,8.821753 v 8.050746 h -5.433 z"
     id="path174"
     style="fill:#f9f9f9;fill-opacity:1" />
  <path
     class="cls-1"
     d="m 1168.1598,88.449622 3.0123,-3.711591 c 1.6855,1.470292 3.9985,2.27716 6.0247,2.27716 2.1695,0 3.1557,-0.806868 3.1557,-2.097856 0,-1.398571 -1.291,-1.8289 -3.3709,-2.689559 l -3.0482,-1.326849 c -2.5282,-0.986172 -4.8591,-3.084027 -4.8591,-6.544593 0,-3.998477 3.604,-7.243878 8.6783,-7.243878 2.8689,0 5.7019,1.057893 7.7459,2.976445 l -2.9764,3.711591 c -1.6138,-1.147545 -3.2633,-1.757179 -4.7695,-1.757179 -1.7572,0 -2.9047,0.699286 -2.9047,1.954413 0,1.398571 1.5061,1.882691 3.6398,2.72542 l 2.9765,1.219266 c 2.9764,1.183406 4.7336,3.155749 4.7336,6.508733 0,3.998477 -3.353,7.494904 -9.1086,7.494904 -3.2275,0 -6.437,-1.111685 -8.9294,-3.496427 z"
     id="path176"
     style="fill:#f9f9f9;fill-opacity:1" />
  <path
     class="cls-1"
     d="m 1190.9135,67.578646 h 8.3376 c 4.9668,0 8.8935,1.326849 8.8935,5.95289 0,2.097856 -1.1834,4.410876 -3.1199,5.146022 v 0.143444 c 2.4206,0.663424 4.3033,2.420602 4.3033,5.630143 0,4.894997 -4.1957,7.046644 -9.3776,7.046644 h -9.0369 z m 8.1225,9.521038 c 2.4564,0 3.5323,-1.057893 3.5323,-2.72542 0,-1.667526 -1.1476,-2.420603 -3.4965,-2.420603 h -2.4206 v 5.146023 z m 0.4841,10.023089 c 2.7971,0 4.2316,-1.022032 4.2316,-3.048167 0,-2.026134 -1.3986,-2.797141 -4.2316,-2.797141 h -2.8689 v 5.845308 z"
     id="path178"
     style="fill:#f9f9f9;fill-opacity:1" />
  <path
     class="cls-1"
     d="M 1213.1113,80.255433 V 67.578646 h 5.7019 v 13.304351 c 0,4.554319 1.3627,6.132194 3.9626,6.132194 2.5999,0 4.0702,-1.577875 4.0702,-6.132194 V 67.578646 h 5.4688 v 12.676787 c 0,8.086607 -3.1916,11.690616 -9.5569,11.690616 -6.3653,0 -9.6645,-3.604009 -9.6645,-11.690616 z"
     id="path180"
     style="fill:#f9f9f9;fill-opacity:1" />
  <path
     class="cls-1"
     d="m 1237.7477,67.578646 h 8.7859 c 5.0743,0 9.3417,1.757178 9.3417,7.530764 0,3.496427 -1.6496,5.737726 -4.106,6.903201 l 5.3253,9.485178 h -6.4012 l -4.4108,-8.409354 h -2.7972 v 8.409354 h -5.7377 z m 8.3376,10.99133 c 2.7254,0 4.1957,-1.183406 4.1957,-3.460566 0,-2.277159 -1.4703,-3.012305 -4.1957,-3.012305 h -2.6178 v 6.472871 z"
     id="path182"
     style="fill:#f9f9f9;fill-opacity:1" />
  <path
     class="cls-1"
     d="m 1260.089,79.699591 c 0,-7.979025 5.3611,-12.569205 11.7623,-12.569205 3.4964,0 5.9887,1.398571 7.6383,3.119888 l -3.0123,3.460566 c -1.1834,-1.057893 -2.4206,-1.649596 -4.4467,-1.649596 -3.5323,0 -6.0963,2.797141 -6.0963,7.423182 0,4.626041 2.1695,7.530765 6.6163,7.530765 0.8427,0 1.7572,-0.215165 2.2771,-0.627564 v -3.855034 h -3.8191 v -4.661902 h 8.8934 v 11.170634 c -1.6496,1.613735 -4.5901,2.904724 -7.979,2.904724 -6.6163,0 -11.834,-4.159851 -11.834,-12.228528 z"
     id="path184"
     style="fill:#f9f9f9;fill-opacity:1" />
</svg>
