<?xml version="1.0" encoding="UTF-8" standalone="no"?>
<svg
   id="Ebene_4"
   viewBox="0 0 486.35 157.19"
   version="1.1"
   sodipodi:docname="Logo_ZNES_quer_dark.svg"
   inkscape:version="1.2.2 (732a01da63, 2022-12-09)"
   xmlns:inkscape="http://www.inkscape.org/namespaces/inkscape"
   xmlns:sodipodi="http://sodipodi.sourceforge.net/DTD/sodipodi-0.dtd"
   xmlns="http://www.w3.org/2000/svg"
   xmlns:svg="http://www.w3.org/2000/svg">
  <sodipodi:namedview
     id="namedview41"
     pagecolor="#ffffff"
     bordercolor="#666666"
     borderopacity="1.0"
     inkscape:showpageshadow="2"
     inkscape:pageopacity="0.0"
     inkscape:pagecheckerboard="0"
     inkscape:deskcolor="#d1d1d1"
     showgrid="false"
     inkscape:zoom="2.4776395"
     inkscape:cx="241.35876"
     inkscape:cy="78.703943"
     inkscape:window-width="2560"
     inkscape:window-height="1377"
     inkscape:window-x="1912"
     inkscape:window-y="-8"
     inkscape:window-maximized="1"
     inkscape:current-layer="Ebene_4" />
  <defs
     id="defs4">
    <style
       id="style2">.cls-1{fill:#333;}.cls-1,.cls-2,.cls-3,.cls-4{stroke-width:0px;}.cls-2{fill:#ec6608;}.cls-3{fill:#16355b;}.cls-4{fill:#bfbfbf;}</style>
  </defs>
  <polygon
     class="cls-1"
     points="257.02 23.71 257.02 34.02 290.29 34.01 256.12 84.43 256.12 90.89 306.27 90.95 306.34 80.5 271.64 80.63 305.94 30.42 305.87 23.69 257.02 23.71"
     id="polygon6"
     style="fill:#f9f9f9;fill-opacity:1" />
  <path
     class="cls-1"
     d="M311.11,23.66v67.27l11.69-.07s-.17-49.87-.07-49.68c5.9,11.96,31.94,49.68,31.94,49.68h12.42l.07-67.27-11.91.07.59,49.6s-13.47-22.42-32.46-49.68c-.11-.15-12.27.07-12.27.07Z"
     id="path8"
     style="fill:#f9f9f9;fill-opacity:1" />
  <polygon
     class="cls-1"
     points="375.17 23.69 375.17 90.94 418.24 90.89 418.29 80.61 386.94 80.61 386.94 61.67 412.42 61.67 412.42 51.3 386.92 51.3 386.92 33.92 416.67 33.92 416.67 23.65 375.17 23.69"
     id="polygon10"
     style="fill:#f9f9f9;fill-opacity:1" />
  <path
     class="cls-1"
     d="M464.07,26.26v10.4s-4.57-2.08-10.4-3.24c-8.32-1.66-19.22-1.65-19.82,7.56-1.1,16.76,33.41,3.66,33.12,30.08-.15,13.76-8.98,22.08-30.17,20.9-7.79-.43-10.01-1.62-15.31-3.88-.02,0,0-10.5,0-10.5,0,0,9.28,4.66,18.25,4.22,5.96-.29,14.72-.96,15.31-9.71.54-7.98-8.76-8.83-15.01-10.21-5.94-1.3-19.37-4.66-18.06-20.41s14.57-19.72,25.51-19.04c11.68.73,16.58,3.83,16.58,3.83Z"
     id="path12"
     style="fill:#f9f9f9;fill-opacity:1" />
  <path
     class="cls-1"
     d="M256.76,106.67h16.17v3.04h-12.58v9.46h10.7v3.04h-10.7v12.54h-3.59v-28.07Z"
     id="path14"
     style="fill:#f9f9f9;fill-opacity:1" />
  <path
     class="cls-1"
     d="M277.94,106.67h3.59v25.03h12.24v3.04h-15.83v-28.07Z"
     id="path16"
     style="fill:#f9f9f9;fill-opacity:1" />
  <path
     class="cls-1"
     d="M297.87,106.67h16.17v3.04h-12.58v8.77h10.61v3.04h-10.61v10.18h13.01v3.04h-16.6v-28.07Z"
     id="path18"
     style="fill:#f9f9f9;fill-opacity:1" />
  <path
     class="cls-1"
     d="M320.42,106.67h3.85l10.01,17.5c1.07,1.88,2.05,3.98,3.04,6.03h.17c-.21-2.91-.47-5.99-.47-8.9v-14.63h3.38v28.07h-3.85l-10.01-17.5c-1.07-1.88-2.1-3.98-3.04-6.03h-.17c.21,2.82.47,5.86.47,8.77v14.76h-3.38v-28.07Z"
     id="path20"
     style="fill:#f9f9f9;fill-opacity:1" />
  <path
     class="cls-1"
     d="M345.15,131.06l2.01-2.35c2.05,2.1,4.92,3.38,7.87,3.38,3.68,0,5.86-1.84,5.86-4.54,0-2.87-2.05-3.76-4.66-4.92l-4.07-1.8c-2.61-1.11-5.65-3.08-5.65-7.23s3.72-7.45,8.81-7.45c3.42,0,6.33,1.41,8.3,3.38l-1.97,2.4c-1.71-1.63-3.89-2.61-6.33-2.61-3.12,0-5.18,1.58-5.18,4.07,0,2.7,2.44,3.72,4.62,4.62l4.02,1.75c3.25,1.37,5.78,3.34,5.78,7.49,0,4.45-3.68,8-9.58,8-4.02,0-7.4-1.58-9.84-4.19Z"
     id="path22"
     style="fill:#f9f9f9;fill-opacity:1" />
  <path
     class="cls-1"
     d="M370.05,106.67h8.34c5.69,0,9.67,1.93,9.67,6.85,0,2.78-1.5,5.26-4.11,6.12v.17c3.34.64,5.69,2.87,5.69,6.72,0,5.52-4.36,8.21-10.61,8.21h-8.99v-28.07ZM377.8,118.61c4.75,0,6.72-1.75,6.72-4.62,0-3.25-2.23-4.45-6.59-4.45h-4.28v9.07h4.15ZM378.52,131.87c4.79,0,7.57-1.71,7.57-5.48,0-3.47-2.7-5.05-7.57-5.05h-4.88v10.53h4.88Z"
     id="path24"
     style="fill:#f9f9f9;fill-opacity:1" />
  <path
     class="cls-1"
     d="M395.08,123.14v-16.47h3.59v16.56c0,6.72,2.82,8.86,6.5,8.86s6.63-2.14,6.63-8.86v-16.56h3.47v16.47c0,8.98-4.36,12.11-10.1,12.11s-10.1-3.12-10.1-12.11Z"
     id="path26"
     style="fill:#f9f9f9;fill-opacity:1" />
  <path
     class="cls-1"
     d="M421.99,106.67h8.77c5.73,0,9.84,2.05,9.84,7.92,0,4.36-2.48,6.93-6.29,7.92l7.15,12.24h-4.06l-6.76-11.85h-5.05v11.85h-3.59v-28.07ZM430.25,119.98c4.36,0,6.76-1.8,6.76-5.39s-2.4-5.01-6.76-5.01h-4.66v10.4h4.66Z"
     id="path28"
     style="fill:#f9f9f9;fill-opacity:1" />
  <path
     class="cls-1"
     d="M444.75,120.7c0-9.03,5.43-14.55,12.88-14.55,3.89,0,6.46,1.71,8.09,3.47l-1.97,2.22c-1.41-1.45-3.21-2.52-6.03-2.52-5.65,0-9.24,4.32-9.24,11.3s3.29,11.47,9.28,11.47c2.01,0,3.94-.6,5.05-1.63v-7.32h-5.95v-2.95h9.24v11.81c-1.84,1.88-4.92,3.25-8.69,3.25-7.4,0-12.67-5.39-12.67-14.55Z"
     id="path30"
     style="fill:#f9f9f9;fill-opacity:1" />
  <path
     class="cls-2"
     d="M22.21,58.46l-9.69,49.25s2.3,16.58,16.09,22.66c16.91,7.45,29.39,3.94,44.66-5.58,16.94-10.57,48.27-42.36,48.27-42.36,0,0-37.1,22-72.73,8.21-25.43-9.84-26.6-32.18-26.6-32.18Z"
     id="path32" />
  <path
     class="cls-3"
     d="M227.93,103.77l9.85-54.34s-1.12-16.09-14.81-22.38c-16.79-7.71-29.32-4.4-44.74,4.87-17.11,10.3-51.49,44.9-51.49,44.9,0,0,38.15-25.89,75.25-11.3,25.53,10.04,25.94,38.25,25.94,38.25Z"
     id="path34" />
  <path
     class="cls-4"
     d="M110.05,101.27s9.36-10.1,19.7-18.22c12.51-9.83,30.29-14.28,30.29-14.28,0,0,19.09,12.68,32.75,14.65,11.86,1.71,21.18-1.11,21.18-1.11,0,0,16.75,18.84,5.79,37.93-6.56,11.42-21.55,16.62-39.03,15.39-29.17-2.05-70.68-34.35-70.68-34.35Z"
     id="path36" />
  <path
     class="cls-4"
     d="M139.29,56.61s-9.27,10.17-19.55,18.39c-12.43,9.93-30.17,14.53-30.17,14.53,0,0-19.19-12.52-32.87-14.38-11.88-1.61-21.17,1.28-21.17,1.28,0,0-16.9-18.7-6.1-37.88,6.46-11.48,21.41-16.8,38.91-15.71,29.18,1.81,70.96,33.77,70.96,33.77Z"
     id="path38" />
</svg>
