<?xml version="1.0" encoding="UTF-8" standalone="no"?>
<svg
   height="72"
   viewBox="0 0 72 72"
   width="72"
   version="1.1"
   id="svg2"
   sodipodi:docname="linkedIn_icon_bw.svg"
   inkscape:version="1.3.2 (091e20e, 2023-11-25, custom)"
   inkscape:export-filename="linkedIn_icon_bw.png"
   inkscape:export-xdpi="96"
   inkscape:export-ydpi="96"
   xmlns:inkscape="http://www.inkscape.org/namespaces/inkscape"
   xmlns:sodipodi="http://sodipodi.sourceforge.net/DTD/sodipodi-0.dtd"
   xmlns:xlink="http://www.w3.org/1999/xlink"
   xmlns="http://www.w3.org/2000/svg"
   xmlns:svg="http://www.w3.org/2000/svg">
  <defs
     id="defs2">
    <clipPath
       clipPathUnits="userSpaceOnUse"
       id="clipPath2">
      <use
         x="0"
         y="0"
         xlink:href="#g1"
         id="use2" />
    </clipPath>
  </defs>
  <sodipodi:namedview
     id="namedview2"
     pagecolor="#ffffff"
     bordercolor="#000000"
     borderopacity="0.25"
     inkscape:showpageshadow="2"
     inkscape:pageopacity="0.0"
     inkscape:pagecheckerboard="0"
     inkscape:deskcolor="#d1d1d1"
     inkscape:zoom="12.756944"
     inkscape:cx="29.826893"
     inkscape:cy="48.796953"
     inkscape:window-width="3840"
     inkscape:window-height="2054"
     inkscape:window-x="3829"
     inkscape:window-y="-11"
     inkscape:window-maximized="1"
     inkscape:current-layer="svg2" />
  <g
     id="g2"
     clip-path="url(#clipPath2)"
     style="fill:#999999;stroke:#999999">
    <g
       inkscape:label="Clip"
       id="g1"
       style="fill:#999999;stroke:#999999">
      <path
         id="path1"
         style="fill-rule:evenodd;fill:#999999;stroke:#999999"
         d="M 8 0 C 3.5817264 0 0 3.5817264 0 8 L 0 64 C 0 68.418274 3.5817264 72 8 72 L 64 72 C 68.418274 72 72 68.418274 72 64 L 72 8 C 72 3.5817264 68.418274 0 64 0 L 8 0 z M 16.349609 10 C 19.856898 10 22.697266 12.863838 22.697266 16.396484 C 22.697266 19.929131 19.856898 22.794922 16.349609 22.794922 C 12.842321 22.794922 10 19.929131 10 16.396484 C 10 12.863838 12.842321 10 16.349609 10 z M 49.382812 26.273438 C 56.73593 26.273438 62 30.76405 62 40.050781 L 62 62 L 51.316406 62 L 51.316406 43.802734 C 51.316406 38.813378 49.419788 36.025391 45.470703 36.025391 C 41.174613 36.025391 38.929687 38.926734 38.929688 43.802734 L 38.929688 62 L 28.632812 62 L 28.632812 27.333984 L 38.929688 27.333984 L 38.929688 32.001953 C 38.929688 32.001953 42.02631 26.273438 49.382812 26.273438 z M 11.033203 27.333984 L 21.769531 27.333984 L 21.769531 62 L 11.033203 62 L 11.033203 27.333984 z " />
    </g>
  </g>
</svg>
