<?xml version="1.0" encoding="UTF-8" standalone="no"?>
<svg
   viewBox="0,0,256,256"
   width="48px"
   height="48px"
   fill-rule="nonzero"
   version="1.1"
   id="svg3"
   sodipodi:docname="linkedIn_icon_bw.svg"
   inkscape:version="1.3.2 (091e20e, 2023-11-25, custom)"
   xmlns:inkscape="http://www.inkscape.org/namespaces/inkscape"
   xmlns:sodipodi="http://sodipodi.sourceforge.net/DTD/sodipodi-0.dtd"
   xmlns="http://www.w3.org/2000/svg"
   xmlns:svg="http://www.w3.org/2000/svg">
  <defs
     id="defs3" />
  <sodipodi:namedview
     id="namedview3"
     pagecolor="#ffffff"
     bordercolor="#000000"
     borderopacity="0.25"
     inkscape:showpageshadow="2"
     inkscape:pageopacity="0.0"
     inkscape:pagecheckerboard="0"
     inkscape:deskcolor="#d1d1d1"
     inkscape:zoom="38.270833"
     inkscape:cx="24"
     inkscape:cy="24"
     inkscape:window-width="3840"
     inkscape:window-height="2054"
     inkscape:window-x="3829"
     inkscape:window-y="-11"
     inkscape:window-maximized="1"
     inkscape:current-layer="svg3" />
  <path
     id="path1"
     style="font-family:none;mix-blend-mode:normal;fill-rule:nonzero;stroke:none;stroke-width:5.33333;stroke-linecap:butt;stroke-linejoin:miter;stroke-miterlimit:10;stroke-dasharray:none;stroke-dashoffset:0;fill:#999999"
     d="M 58.666667 32 C 43.941357 32 32 43.936024 32 58.666667 L 32 197.33333 C 32 212.06398 43.941357 224 58.666667 224 L 197.33333 224 C 212.06398 224 224 212.06398 224 197.33333 L 224 58.666667 C 224 43.936024 212.06398 32 197.33333 32 L 58.666667 32 z M 77.40625 64 C 85.518237 64 90.517334 69.754928 90.666667 77.322917 C 90.666667 84.725571 85.516654 90.666667 77.25 90.666667 L 77.104167 90.666667 C 69.146846 90.666667 64 84.730904 64 77.322917 C 64 69.754928 69.304929 64 77.40625 64 z M 64 101.33333 L 90.666667 101.33333 L 90.666667 192 L 64 192 L 64 101.33333 z M 106.66667 101.33333 L 133.33333 101.33333 L 133.33333 115.28125 C 137.17866 109.32926 143.20152 101.33333 158.60417 101.33333 C 177.6868 101.33333 191.98958 113.33038 191.98958 140.125 L 192 192 L 165.33333 192 L 165.33333 143.46875 C 165.33333 131.7461 158.80315 123.75 148.3125 123.75 C 140.30718 123.75 135.97633 129.1486 133.875 134.36458 C 133.107 136.23125 133.33333 141.392 133.33333 144 L 133.33333 192 L 106.66667 192 L 106.66667 101.33333 z " />
</svg>
