<?xml version="1.0" encoding="UTF-8" standalone="no"?>
<svg
   id="Ebene_4"
   viewBox="0 0 484.61 209.07"
   version="1.1"
   sodipodi:docname="Logo_ZNES_mitUnis_dark.svg"
   inkscape:version="1.2.2 (732a01da63, 2022-12-09)"
   xmlns:inkscape="http://www.inkscape.org/namespaces/inkscape"
   xmlns:sodipodi="http://sodipodi.sourceforge.net/DTD/sodipodi-0.dtd"
   xmlns="http://www.w3.org/2000/svg"
   xmlns:svg="http://www.w3.org/2000/svg">
  <sodipodi:namedview
     id="namedview187"
     pagecolor="#ffffff"
     bordercolor="#666666"
     borderopacity="1.0"
     inkscape:showpageshadow="2"
     inkscape:pageopacity="0.0"
     inkscape:pagecheckerboard="0"
     inkscape:deskcolor="#d1d1d1"
     showgrid="false"
     inkscape:zoom="2.4865356"
     inkscape:cx="240.89742"
     inkscape:cy="104.56315"
     inkscape:window-width="2560"
     inkscape:window-height="1377"
     inkscape:window-x="1912"
     inkscape:window-y="-8"
     inkscape:window-maximized="1"
     inkscape:current-layer="Ebene_4" />
  <defs
     id="defs4">
    <style
       id="style2">.cls-1{fill:#333;}.cls-1,.cls-2,.cls-3,.cls-4{stroke-width:0px;}.cls-2{fill:#ec6608;}.cls-3{fill:#16355b;}.cls-4{fill:#bfbfbf;}</style>
  </defs>
  <polygon
     class="cls-1"
     points="258.71 14.92 258.71 25.23 291.98 25.23 257.81 75.64 257.81 82.1 307.96 82.17 308.03 71.71 273.33 71.84 307.63 21.63 307.56 14.9 258.71 14.92"
     id="polygon6"
     style="fill:#f9f9f9;fill-opacity:1" />
  <path
     class="cls-1"
     d="M312.8,14.88v67.27l11.69-.07s-.17-49.87-.07-49.68c5.9,11.96,31.94,49.68,31.94,49.68h12.42l.07-67.27-11.91.07.59,49.6s-13.47-22.42-32.46-49.68c-.11-.15-12.27.07-12.27.07Z"
     id="path8"
     style="fill:#f9f9f9;fill-opacity:1" />
  <polygon
     class="cls-1"
     points="376.86 14.91 376.86 82.15 419.93 82.1 419.98 71.83 388.63 71.83 388.63 52.89 414.1 52.89 414.1 42.51 388.61 42.51 388.61 25.14 418.36 25.14 418.36 14.86 376.86 14.91"
     id="polygon10"
     style="fill:#f9f9f9;fill-opacity:1" />
  <path
     class="cls-1"
     d="M465.76,17.48v10.4s-4.57-2.08-10.4-3.24c-8.32-1.66-19.22-1.65-19.82,7.56-1.1,16.76,33.41,3.66,33.12,30.08-.15,13.76-8.98,22.08-30.17,20.9-7.79-.43-10.01-1.62-15.31-3.88-.02,0,0-10.5,0-10.5,0,0,9.28,4.66,18.25,4.22,5.96-.29,14.72-.96,15.31-9.71.54-7.98-8.76-8.83-15.01-10.21-5.94-1.3-19.37-4.66-18.06-20.41,1.35-16.19,14.57-19.72,25.51-19.04,11.68.73,16.58,3.83,16.58,3.83Z"
     id="path12"
     style="fill:#f9f9f9;fill-opacity:1" />
  <path
     class="cls-1"
     d="M258.45,97.88h16.17v3.04h-12.58v9.46h10.7v3.04h-10.7v12.54h-3.59v-28.07Z"
     id="path14"
     style="fill:#f9f9f9;fill-opacity:1" />
  <path
     class="cls-1"
     d="M279.63,97.88h3.59v25.03h12.24v3.04h-15.83v-28.07Z"
     id="path16"
     style="fill:#f9f9f9;fill-opacity:1" />
  <path
     class="cls-1"
     d="M299.56,97.88h16.17v3.04h-12.58v8.77h10.61v3.04h-10.61v10.18h13.01v3.04h-16.6v-28.07Z"
     id="path18"
     style="fill:#f9f9f9;fill-opacity:1" />
  <path
     class="cls-1"
     d="M322.11,97.88h3.85l10.01,17.5c1.07,1.88,2.05,3.98,3.04,6.03h.17c-.21-2.91-.47-5.99-.47-8.9v-14.63h3.38v28.07h-3.85l-10.01-17.5c-1.07-1.88-2.1-3.98-3.04-6.03h-.17c.21,2.82.47,5.86.47,8.77v14.76h-3.38v-28.07Z"
     id="path20"
     style="fill:#f9f9f9;fill-opacity:1" />
  <path
     class="cls-1"
     d="M346.84,122.27l2.01-2.35c2.05,2.1,4.92,3.38,7.87,3.38,3.68,0,5.86-1.84,5.86-4.54,0-2.87-2.05-3.76-4.66-4.92l-4.07-1.8c-2.61-1.11-5.65-3.08-5.65-7.23s3.72-7.45,8.81-7.45c3.42,0,6.33,1.41,8.3,3.38l-1.97,2.4c-1.71-1.63-3.89-2.61-6.33-2.61-3.12,0-5.18,1.58-5.18,4.07,0,2.7,2.44,3.72,4.62,4.62l4.02,1.75c3.25,1.37,5.78,3.34,5.78,7.49,0,4.45-3.68,8-9.58,8-4.02,0-7.4-1.58-9.84-4.19Z"
     id="path22"
     style="fill:#f9f9f9;fill-opacity:1" />
  <path
     class="cls-1"
     d="M371.74,97.88h8.34c5.69,0,9.67,1.93,9.67,6.85,0,2.78-1.5,5.26-4.11,6.12v.17c3.34.64,5.69,2.87,5.69,6.72,0,5.52-4.36,8.21-10.61,8.21h-8.99v-28.07ZM379.49,109.82c4.75,0,6.72-1.75,6.72-4.62,0-3.25-2.23-4.45-6.59-4.45h-4.28v9.07h4.15ZM380.21,123.08c4.79,0,7.57-1.71,7.57-5.48,0-3.47-2.7-5.05-7.57-5.05h-4.88v10.53h4.88Z"
     id="path24"
     style="fill:#f9f9f9;fill-opacity:1" />
  <path
     class="cls-1"
     d="M396.77,114.36v-16.47h3.59v16.56c0,6.72,2.82,8.86,6.5,8.86s6.63-2.14,6.63-8.86v-16.56h3.47v16.47c0,8.98-4.36,12.11-10.1,12.11s-10.1-3.12-10.1-12.11Z"
     id="path26"
     style="fill:#f9f9f9;fill-opacity:1" />
  <path
     class="cls-1"
     d="M423.68,97.88h8.77c5.73,0,9.84,2.05,9.84,7.92,0,4.36-2.48,6.93-6.29,7.92l7.15,12.24h-4.06l-6.76-11.85h-5.05v11.85h-3.59v-28.07ZM431.94,111.19c4.36,0,6.76-1.8,6.76-5.39s-2.4-5.01-6.76-5.01h-4.66v10.4h4.66Z"
     id="path28"
     style="fill:#f9f9f9;fill-opacity:1" />
  <path
     class="cls-1"
     d="M446.44,111.92c0-9.03,5.43-14.55,12.88-14.55,3.89,0,6.46,1.71,8.09,3.47l-1.97,2.22c-1.41-1.45-3.21-2.52-6.03-2.52-5.65,0-9.24,4.32-9.24,11.3s3.29,11.47,9.28,11.47c2.01,0,3.94-.6,5.05-1.63v-7.32h-5.95v-2.95h9.24v11.81c-1.84,1.88-4.92,3.25-8.69,3.25-7.4,0-12.67-5.39-12.67-14.55Z"
     id="path30"
     style="fill:#f9f9f9;fill-opacity:1" />
  <path
     class="cls-2"
     d="M23.9,49.67l-9.69,49.25s2.3,16.58,16.09,22.66c16.91,7.45,29.39,3.94,44.66-5.58,16.94-10.57,48.27-42.36,48.27-42.36,0,0-37.1,22-72.73,8.21-25.43-9.84-26.6-32.18-26.6-32.18Z"
     id="path32" />
  <path
     class="cls-3"
     d="M229.62,94.98l9.85-54.34s-1.12-16.09-14.81-22.38c-16.79-7.71-29.32-4.4-44.74,4.87-17.11,10.3-51.49,44.9-51.49,44.9,0,0,38.15-25.89,75.25-11.3,25.53,10.04,25.94,38.25,25.94,38.25Z"
     id="path34" />
  <path
     class="cls-4"
     d="M111.74,92.48s9.36-10.1,19.7-18.22c12.51-9.83,30.29-14.28,30.29-14.28,0,0,19.09,12.68,32.75,14.65,11.86,1.71,21.18-1.11,21.18-1.11,0,0,16.75,18.84,5.79,37.93-6.56,11.42-21.55,16.62-39.03,15.39-29.17-2.05-70.68-34.35-70.68-34.35Z"
     id="path36" />
  <path
     class="cls-4"
     d="M140.98,47.82s-9.27,10.17-19.55,18.39c-12.43,9.93-30.17,14.53-30.17,14.53,0,0-19.19-12.52-32.87-14.38-11.88-1.61-21.17,1.28-21.17,1.28,0,0-16.9-18.7-6.1-37.88,6.46-11.48,21.41-16.8,38.91-15.71,29.18,1.81,70.96,33.77,70.96,33.77Z"
     id="path38" />
  <path
     class="cls-1"
     d="M15.46,164.2l7.91-12.3h-7.2v-1.63h9.61v1.15l-7.93,12.3h8v1.63h-10.39v-1.15Z"
     id="path40"
     style="fill:#f9f9f9;fill-opacity:1" />
  <path
     class="cls-1"
     d="M28.89,150.27h8.69v1.63h-6.76v4.71h5.7v1.63h-5.7v5.47h6.99v1.63h-8.92v-15.08Z"
     id="path42"
     style="fill:#f9f9f9;fill-opacity:1" />
  <path
     class="cls-1"
     d="M41.01,150.27h2.07l5.38,9.41c.58,1.01,1.1,2.14,1.63,3.24h.09c-.11-1.56-.25-3.22-.25-4.78v-7.86h1.82v15.08h-2.07l-5.38-9.41c-.57-1.01-1.13-2.14-1.63-3.24h-.09c.12,1.52.25,3.15.25,4.71v7.93h-1.82v-15.08Z"
     id="path44"
     style="fill:#f9f9f9;fill-opacity:1" />
  <path
     class="cls-1"
     d="M58.99,151.9h-4.55v-1.63h11.06v1.63h-4.58v13.45h-1.93v-13.45Z"
     id="path46"
     style="fill:#f9f9f9;fill-opacity:1" />
  <path
     class="cls-1"
     d="M68.19,150.27h4.71c3.08,0,5.29,1.1,5.29,4.25,0,2.35-1.33,3.73-3.38,4.25l3.84,6.58h-2.18l-3.63-6.37h-2.71v6.37h-1.93v-15.08ZM72.63,157.42c2.35,0,3.63-.97,3.63-2.9s-1.29-2.69-3.63-2.69h-2.51v5.59h2.51Z"
     id="path48"
     style="fill:#f9f9f9;fill-opacity:1" />
  <path
     class="cls-1"
     d="M81.24,159.12v-8.85h1.93v8.9c0,3.61,1.52,4.76,3.5,4.76s3.56-1.15,3.56-4.76v-8.9h1.86v8.85c0,4.83-2.35,6.51-5.43,6.51s-5.43-1.68-5.43-6.51Z"
     id="path50"
     style="fill:#f9f9f9;fill-opacity:1" />
  <path
     class="cls-1"
     d="M96.14,150.27h2.41l2.85,8.07c.37,1.06.69,2.02,1.01,3.15h.09c.34-1.13.62-2.09.99-3.15l2.85-8.07h2.42v15.08h-1.82v-8.32c0-1.33.16-3.2.28-4.51h-.09l-1.17,3.52-2.83,7.79h-1.4l-2.81-7.79-1.2-3.52h-.09c.12,1.31.28,3.17.28,4.51v8.32h-1.77v-15.08Z"
     id="path52"
     style="fill:#f9f9f9;fill-opacity:1" />
  <path
     class="cls-1"
     d="M117.48,150.27h8.69v1.63h-6.76v5.08h5.75v1.63h-5.75v6.74h-1.93v-15.08Z"
     id="path54"
     style="fill:#f9f9f9;fill-opacity:1" />
  <path
     class="cls-1"
     d="M128.8,159.12v-8.85h1.93v8.9c0,3.61,1.52,4.76,3.5,4.76s3.56-1.15,3.56-4.76v-8.9h1.86v8.85c0,4.83-2.35,6.51-5.43,6.51s-5.43-1.68-5.43-6.51ZM130.71,147.78c0-.67.48-1.15,1.13-1.15s1.13.48,1.13,1.15-.46,1.13-1.13,1.13-1.13-.48-1.13-1.13ZM135.44,147.78c0-.67.46-1.15,1.13-1.15s1.13.48,1.13,1.15-.48,1.13-1.13,1.13-1.13-.48-1.13-1.13Z"
     id="path56"
     style="fill:#f9f9f9;fill-opacity:1" />
  <path
     class="cls-1"
     d="M143.72,150.27h4.71c3.08,0,5.29,1.1,5.29,4.25,0,2.35-1.33,3.73-3.38,4.25l3.84,6.58h-2.18l-3.63-6.37h-2.71v6.37h-1.93v-15.08ZM148.16,157.42c2.35,0,3.63-.97,3.63-2.9s-1.29-2.69-3.63-2.69h-2.51v5.59h2.51Z"
     id="path58"
     style="fill:#f9f9f9;fill-opacity:1" />
  <path
     class="cls-1"
     d="M161.43,150.27h2.07l5.38,9.41c.58,1.01,1.1,2.14,1.63,3.24h.09c-.11-1.56-.25-3.22-.25-4.78v-7.86h1.82v15.08h-2.07l-5.38-9.41c-.57-1.01-1.13-2.14-1.63-3.24h-.09c.12,1.52.25,3.15.25,4.71v7.93h-1.82v-15.08Z"
     id="path60"
     style="fill:#f9f9f9;fill-opacity:1" />
  <path
     class="cls-1"
     d="M179.37,150.27h2.21l5.08,15.08h-2.05l-1.43-4.58h-5.5l-1.45,4.58h-1.95l5.08-15.08ZM178.2,159.21h4.51l-.71-2.28c-.55-1.68-1.04-3.33-1.52-5.08h-.09c-.46,1.75-.94,3.4-1.47,5.08l-.71,2.28Z"
     id="path62"
     style="fill:#f9f9f9;fill-opacity:1" />
  <path
     class="cls-1"
     d="M187.7,157.81c0-4.85,2.85-7.82,6.69-7.82,1.84,0,3.26.87,4.16,1.86l-1.06,1.2c-.8-.83-1.79-1.36-3.08-1.36-2.83,0-4.71,2.32-4.71,6.07s1.79,6.16,4.64,6.16c1.45,0,2.53-.58,3.5-1.63l1.06,1.15c-1.22,1.4-2.69,2.18-4.62,2.18-3.77,0-6.58-2.9-6.58-7.82Z"
     id="path64"
     style="fill:#f9f9f9;fill-opacity:1" />
  <path
     class="cls-1"
     d="M201.71,150.27h1.93v6.3h6.99v-6.3h1.93v15.08h-1.93v-7.08h-6.99v7.08h-1.93v-15.08Z"
     id="path66"
     style="fill:#f9f9f9;fill-opacity:1" />
  <path
     class="cls-1"
     d="M216.7,150.27h1.93v6.3h6.99v-6.3h1.93v15.08h-1.93v-7.08h-6.99v7.08h-1.93v-15.08Z"
     id="path68"
     style="fill:#f9f9f9;fill-opacity:1" />
  <path
     class="cls-1"
     d="M234.78,150.27h2.21l5.08,15.08h-2.05l-1.43-4.58h-5.5l-1.45,4.58h-1.95l5.08-15.08ZM233.61,159.21h4.51l-.71-2.28c-.55-1.68-1.04-3.33-1.52-5.08h-.09c-.46,1.75-.94,3.4-1.47,5.08l-.71,2.28Z"
     id="path70"
     style="fill:#f9f9f9;fill-opacity:1" />
  <path
     class="cls-1"
     d="M244.21,150.27h1.93v13.45h6.58v1.63h-8.51v-15.08Z"
     id="path72"
     style="fill:#f9f9f9;fill-opacity:1" />
  <path
     class="cls-1"
     d="M255.76,151.9h-4.55v-1.63h11.06v1.63h-4.58v13.45h-1.93v-13.45Z"
     id="path74"
     style="fill:#f9f9f9;fill-opacity:1" />
  <path
     class="cls-1"
     d="M264.96,150.27h1.93v15.08h-1.93v-15.08Z"
     id="path76"
     style="fill:#f9f9f9;fill-opacity:1" />
  <path
     class="cls-1"
     d="M270.13,157.81c0-4.85,2.92-7.82,6.92-7.82,2.09,0,3.47.92,4.35,1.86l-1.06,1.2c-.76-.78-1.72-1.36-3.24-1.36-3.04,0-4.97,2.32-4.97,6.07s1.77,6.16,4.99,6.16c1.08,0,2.12-.32,2.71-.87v-3.93h-3.2v-1.59h4.97v6.35c-.99,1.01-2.64,1.75-4.67,1.75-3.98,0-6.81-2.9-6.81-7.82Z"
     id="path78"
     style="fill:#f9f9f9;fill-opacity:1" />
  <path
     class="cls-1"
     d="M285.2,150.27h8.69v1.63h-6.76v4.71h5.7v1.63h-5.7v5.47h6.99v1.63h-8.92v-15.08Z"
     id="path80"
     style="fill:#f9f9f9;fill-opacity:1" />
  <path
     class="cls-1"
     d="M301.92,150.27h8.69v1.63h-6.76v4.71h5.7v1.63h-5.7v5.47h6.99v1.63h-8.92v-15.08Z"
     id="path82"
     style="fill:#f9f9f9;fill-opacity:1" />
  <path
     class="cls-1"
     d="M314.04,150.27h2.07l5.38,9.41c.58,1.01,1.1,2.14,1.63,3.24h.09c-.11-1.56-.25-3.22-.25-4.78v-7.86h1.82v15.08h-2.07l-5.38-9.41c-.57-1.01-1.13-2.14-1.63-3.24h-.09c.12,1.52.25,3.15.25,4.71v7.93h-1.82v-15.08Z"
     id="path84"
     style="fill:#f9f9f9;fill-opacity:1" />
  <path
     class="cls-1"
     d="M328.9,150.27h8.69v1.63h-6.76v4.71h5.7v1.63h-5.7v5.47h6.99v1.63h-8.92v-15.08Z"
     id="path86"
     style="fill:#f9f9f9;fill-opacity:1" />
  <path
     class="cls-1"
     d="M341.02,150.27h4.71c3.08,0,5.29,1.1,5.29,4.25,0,2.35-1.33,3.73-3.38,4.25l3.84,6.58h-2.18l-3.63-6.37h-2.71v6.37h-1.93v-15.08ZM345.45,157.42c2.35,0,3.63-.97,3.63-2.9s-1.29-2.69-3.63-2.69h-2.51v5.59h2.51Z"
     id="path88"
     style="fill:#f9f9f9;fill-opacity:1" />
  <path
     class="cls-1"
     d="M353.25,157.81c0-4.85,2.92-7.82,6.92-7.82,2.09,0,3.47.92,4.35,1.86l-1.06,1.2c-.76-.78-1.72-1.36-3.24-1.36-3.04,0-4.97,2.32-4.97,6.07s1.77,6.16,4.99,6.16c1.08,0,2.12-.32,2.71-.87v-3.93h-3.2v-1.59h4.97v6.35c-.99,1.01-2.64,1.75-4.67,1.75-3.98,0-6.81-2.9-6.81-7.82Z"
     id="path90"
     style="fill:#f9f9f9;fill-opacity:1" />
  <path
     class="cls-1"
     d="M368.32,150.27h1.93v15.08h-1.93v-15.08Z"
     id="path92"
     style="fill:#f9f9f9;fill-opacity:1" />
  <path
     class="cls-1"
     d="M374.37,150.27h8.69v1.63h-6.76v4.71h5.7v1.63h-5.7v5.47h6.99v1.63h-8.92v-15.08Z"
     id="path94"
     style="fill:#f9f9f9;fill-opacity:1" />
  <path
     class="cls-1"
     d="M385.38,163.37l1.08-1.26c1.1,1.13,2.64,1.82,4.23,1.82,1.98,0,3.15-.99,3.15-2.44,0-1.54-1.1-2.02-2.51-2.64l-2.18-.97c-1.4-.6-3.04-1.66-3.04-3.89s2-4,4.74-4c1.84,0,3.4.76,4.46,1.82l-1.06,1.29c-.92-.87-2.09-1.4-3.4-1.4-1.68,0-2.78.85-2.78,2.18,0,1.45,1.31,2,2.48,2.48l2.16.94c1.75.74,3.1,1.79,3.1,4.02,0,2.39-1.98,4.3-5.15,4.3-2.16,0-3.98-.85-5.29-2.25Z"
     id="path96"
     style="fill:#f9f9f9;fill-opacity:1" />
  <path
     class="cls-1"
     d="M400.88,159.51l-4.53-9.24h2.07l1.93,4.25c.48,1.1.94,2.16,1.47,3.29h.09c.51-1.13,1.03-2.18,1.49-3.29l1.93-4.25h2.02l-4.55,9.24v5.84h-1.93v-5.84Z"
     id="path98"
     style="fill:#f9f9f9;fill-opacity:1" />
  <path
     class="cls-1"
     d="M407.92,163.37l1.08-1.26c1.1,1.13,2.64,1.82,4.23,1.82,1.98,0,3.15-.99,3.15-2.44,0-1.54-1.1-2.02-2.51-2.64l-2.18-.97c-1.4-.6-3.04-1.66-3.04-3.89s2-4,4.74-4c1.84,0,3.4.76,4.46,1.82l-1.06,1.29c-.92-.87-2.09-1.4-3.4-1.4-1.68,0-2.78.85-2.78,2.18,0,1.45,1.31,2,2.48,2.48l2.16.94c1.75.74,3.1,1.79,3.1,4.02,0,2.39-1.98,4.3-5.15,4.3-2.16,0-3.98-.85-5.29-2.25Z"
     id="path100"
     style="fill:#f9f9f9;fill-opacity:1" />
  <path
     class="cls-1"
     d="M423.98,151.9h-4.55v-1.63h11.06v1.63h-4.58v13.45h-1.93v-13.45Z"
     id="path102"
     style="fill:#f9f9f9;fill-opacity:1" />
  <path
     class="cls-1"
     d="M433.18,150.27h8.69v1.63h-6.76v4.71h5.7v1.63h-5.7v5.47h6.99v1.63h-8.92v-15.08Z"
     id="path104"
     style="fill:#f9f9f9;fill-opacity:1" />
  <path
     class="cls-1"
     d="M445.28,150.27h2.41l2.85,8.07c.37,1.06.69,2.02,1.01,3.15h.09c.34-1.13.62-2.09.99-3.15l2.85-8.07h2.42v15.08h-1.82v-8.32c0-1.33.16-3.2.28-4.51h-.09l-1.17,3.52-2.83,7.79h-1.4l-2.81-7.79-1.2-3.52h-.09c.12,1.31.28,3.17.28,4.51v8.32h-1.77v-15.08Z"
     id="path106"
     style="fill:#f9f9f9;fill-opacity:1" />
  <path
     class="cls-1"
     d="M462.02,150.27h8.69v1.63h-6.76v4.71h5.7v1.63h-5.7v5.47h6.99v1.63h-8.92v-15.08Z"
     id="path108"
     style="fill:#f9f9f9;fill-opacity:1" />
  <path
     class="cls-1"
     d="M15.96,177.01h3.2v5.08h4.41v-5.08h3.18v13.34h-3.18v-5.49h-4.41v5.49h-3.2v-13.34Z"
     id="path110"
     style="fill:#f9f9f9;fill-opacity:1" />
  <path
     class="cls-1"
     d="M29.2,183.63c0-4.39,2.48-6.87,6.11-6.87s6.11,2.5,6.11,6.87-2.48,6.97-6.11,6.97-6.11-2.6-6.11-6.97ZM38.16,183.63c0-2.6-1.09-4.12-2.85-4.12s-2.85,1.52-2.85,4.12,1.11,4.22,2.85,4.22,2.85-1.64,2.85-4.22Z"
     id="path112"
     style="fill:#f9f9f9;fill-opacity:1" />
  <path
     class="cls-1"
     d="M43.28,183.77c0-4.45,2.99-7.01,6.35-7.01,1.74,0,3.14.78,4.06,1.74l-1.68,1.93c-.66-.62-1.35-.92-2.3-.92-1.76,0-3.18,1.56-3.18,4.14s1.25,4.2,3.11,4.2c1.09,0,1.93-.43,2.56-1.11l1.66,1.88c-1.17,1.33-2.64,1.97-4.32,1.97-3.4,0-6.27-2.32-6.27-6.82Z"
     id="path114"
     style="fill:#f9f9f9;fill-opacity:1" />
  <path
     class="cls-1"
     d="M55.85,177.01h3.2v5.08h4.41v-5.08h3.18v13.34h-3.18v-5.49h-4.41v5.49h-3.2v-13.34Z"
     id="path116"
     style="fill:#f9f9f9;fill-opacity:1" />
  <path
     class="cls-1"
     d="M68.87,188.65l1.68-2.07c.94.82,2.23,1.27,3.36,1.27,1.21,0,1.76-.45,1.76-1.17,0-.78-.72-1.02-1.88-1.5l-1.7-.74c-1.41-.55-2.71-1.72-2.71-3.65,0-2.23,2.01-4.04,4.84-4.04,1.6,0,3.18.59,4.32,1.66l-1.66,2.07c-.9-.64-1.82-.98-2.66-.98-.98,0-1.62.39-1.62,1.09,0,.78.84,1.05,2.03,1.52l1.66.68c1.66.66,2.64,1.76,2.64,3.63,0,2.23-1.87,4.18-5.08,4.18-1.8,0-3.59-.62-4.98-1.95Z"
     id="path118"
     style="fill:#f9f9f9;fill-opacity:1" />
  <path
     class="cls-1"
     d="M80.53,183.77c0-4.45,2.99-7.01,6.35-7.01,1.74,0,3.14.78,4.06,1.74l-1.68,1.93c-.66-.62-1.35-.92-2.3-.92-1.76,0-3.18,1.56-3.18,4.14s1.25,4.2,3.11,4.2c1.09,0,1.93-.43,2.56-1.11l1.66,1.88c-1.17,1.33-2.64,1.97-4.32,1.97-3.4,0-6.27-2.32-6.27-6.82Z"
     id="path120"
     style="fill:#f9f9f9;fill-opacity:1" />
  <path
     class="cls-1"
     d="M93.1,177.01h3.2v5.08h4.41v-5.08h3.18v13.34h-3.18v-5.49h-4.41v5.49h-3.2v-13.34Z"
     id="path122"
     style="fill:#f9f9f9;fill-opacity:1" />
  <path
     class="cls-1"
     d="M106.9,184.08v-7.07h3.18v7.42c0,2.54.76,3.42,2.21,3.42s2.27-.88,2.27-3.42v-7.42h3.05v7.07c0,4.51-1.78,6.52-5.33,6.52s-5.39-2.01-5.39-6.52Z"
     id="path124"
     style="fill:#f9f9f9;fill-opacity:1" />
  <path
     class="cls-1"
     d="M120.63,177.01h3.2v10.68h5.18v2.66h-8.38v-13.34Z"
     id="path126"
     style="fill:#f9f9f9;fill-opacity:1" />
  <path
     class="cls-1"
     d="M131.33,177.01h8.44v2.66h-5.25v2.5h4.49v2.66h-4.49v2.85h5.45v2.66h-8.65v-13.34Z"
     id="path128"
     style="fill:#f9f9f9;fill-opacity:1" />
  <path
     class="cls-1"
     d="M146.91,174.98h2.07v20.49h-2.07v-20.49Z"
     id="path130"
     style="fill:#f9f9f9;fill-opacity:1" />
  <path
     class="cls-1"
     d="M156.36,177.01h8.44v2.66h-5.25v2.5h4.49v2.66h-4.49v2.85h5.45v2.66h-8.65v-13.34Z"
     id="path132"
     style="fill:#f9f9f9;fill-opacity:1" />
  <path
     class="cls-1"
     d="M167.57,184.08v-7.07h3.18v7.42c0,2.54.76,3.42,2.21,3.42s2.27-.88,2.27-3.42v-7.42h3.05v7.07c0,4.51-1.78,6.52-5.33,6.52s-5.39-2.01-5.39-6.52Z"
     id="path134"
     style="fill:#f9f9f9;fill-opacity:1" />
  <path
     class="cls-1"
     d="M181.31,177.01h4.9c2.83,0,5.21.98,5.21,4.2,0,1.95-.92,3.2-2.29,3.85l2.97,5.29h-3.57l-2.46-4.69h-1.56v4.69h-3.2v-13.34ZM185.96,183.14c1.52,0,2.34-.66,2.34-1.93s-.82-1.68-2.34-1.68h-1.46v3.61h1.46Z"
     id="path136"
     style="fill:#f9f9f9;fill-opacity:1" />
  <path
     class="cls-1"
     d="M193.36,183.63c0-4.39,2.48-6.87,6.11-6.87s6.11,2.5,6.11,6.87-2.48,6.97-6.11,6.97-6.11-2.6-6.11-6.97ZM202.32,183.63c0-2.6-1.09-4.12-2.85-4.12s-2.85,1.52-2.85,4.12,1.11,4.22,2.85,4.22,2.85-1.64,2.85-4.22Z"
     id="path138"
     style="fill:#f9f9f9;fill-opacity:1" />
  <path
     class="cls-1"
     d="M207.65,177.01h4.69c2.93,0,5.33,1.04,5.33,4.32s-2.44,4.59-5.25,4.59h-1.58v4.43h-3.2v-13.34ZM212.24,183.4c1.58,0,2.32-.74,2.32-2.07s-.84-1.8-2.4-1.8h-1.31v3.87h1.39Z"
     id="path140"
     style="fill:#f9f9f9;fill-opacity:1" />
  <path
     class="cls-1"
     d="M221.39,177.01h3.81l4.16,13.34h-3.36l-.78-3.07h-3.96l-.78,3.07h-3.26l4.16-13.34ZM221.88,184.82h2.73l-.29-1.15c-.35-1.31-.7-2.89-1.04-4.28h-.08c-.33,1.39-.68,2.97-1.03,4.28l-.29,1.15Z"
     id="path142"
     style="fill:#f9f9f9;fill-opacity:1" />
  <path
     class="cls-1"
     d="M230.1,184.04h5.06v2.23h-5.06v-2.23Z"
     id="path144"
     style="fill:#f9f9f9;fill-opacity:1" />
  <path
     class="cls-1"
     d="M237.52,184.08v-7.07h3.18v7.42c0,2.54.76,3.42,2.21,3.42s2.27-.88,2.27-3.42v-7.42h3.05v7.07c0,4.51-1.78,6.52-5.33,6.52s-5.39-2.01-5.39-6.52Z"
     id="path146"
     style="fill:#f9f9f9;fill-opacity:1" />
  <path
     class="cls-1"
     d="M251.66,177.01h3.3l3.28,6.39c.47.9.9,1.97,1.31,3.01h.08c-.16-1.43-.41-3.34-.41-4.92v-4.49h3.01v13.34h-3.28l-3.3-6.39c-.45-.9-.88-1.97-1.29-3.01h-.08c.16,1.48.41,3.32.41,4.92v4.49h-3.03v-13.34Z"
     id="path148"
     style="fill:#f9f9f9;fill-opacity:1" />
  <path
     class="cls-1"
     d="M265.75,177.01h3.2v13.34h-3.2v-13.34Z"
     id="path150"
     style="fill:#f9f9f9;fill-opacity:1" />
  <path
     class="cls-1"
     d="M270.32,177.01h3.36l1.45,6.09c.37,1.45.66,2.81,1.05,4.26h.08c.39-1.46.68-2.81,1.04-4.26l1.6-6.09h3.24l-4.08,13.34h-3.83l-3.91-13.34Z"
     id="path152"
     style="fill:#f9f9f9;fill-opacity:1" />
  <path
     class="cls-1"
     d="M283.52,177.01h8.44v2.66h-5.25v2.5h4.49v2.66h-4.49v2.85h5.45v2.66h-8.65v-13.34Z"
     id="path154"
     style="fill:#f9f9f9;fill-opacity:1" />
  <path
     class="cls-1"
     d="M294.8,177.01h4.9c2.83,0,5.21.98,5.21,4.2,0,1.95-.92,3.2-2.29,3.85l2.97,5.29h-3.57l-2.46-4.69h-1.56v4.69h-3.2v-13.34ZM299.45,183.14c1.52,0,2.34-.66,2.34-1.93s-.82-1.68-2.34-1.68h-1.46v3.61h1.46Z"
     id="path156"
     style="fill:#f9f9f9;fill-opacity:1" />
  <path
     class="cls-1"
     d="M306.34,188.65l1.68-2.07c.94.82,2.23,1.27,3.36,1.27,1.21,0,1.76-.45,1.76-1.17,0-.78-.72-1.02-1.88-1.5l-1.7-.74c-1.41-.55-2.71-1.72-2.71-3.65,0-2.23,2.01-4.04,4.84-4.04,1.6,0,3.18.59,4.32,1.66l-1.66,2.07c-.9-.64-1.82-.98-2.66-.98-.98,0-1.62.39-1.62,1.09,0,.78.84,1.05,2.03,1.52l1.66.68c1.66.66,2.64,1.76,2.64,3.63,0,2.23-1.87,4.18-5.08,4.18-1.8,0-3.59-.62-4.98-1.95Z"
     id="path158"
     style="fill:#f9f9f9;fill-opacity:1" />
  <path
     class="cls-1"
     d="M319.03,177.01h3.2v13.34h-3.2v-13.34Z"
     id="path160"
     style="fill:#f9f9f9;fill-opacity:1" />
  <path
     class="cls-1"
     d="M327.9,179.67h-3.63v-2.66h10.43v2.66h-3.63v10.68h-3.18v-10.68Z"
     id="path162"
     style="fill:#f9f9f9;fill-opacity:1" />
  <path
     class="cls-1"
     d="M337.99,177.01h3.81l4.16,13.34h-3.36l-.78-3.07h-3.96l-.78,3.07h-3.26l4.16-13.34ZM336.08,174.55c0-.84.62-1.48,1.48-1.48s1.5.64,1.5,1.48-.61,1.5-1.5,1.5-1.48-.64-1.48-1.5ZM338.48,184.82h2.72l-.29-1.15c-.35-1.31-.7-2.89-1.04-4.28h-.08c-.33,1.39-.68,2.97-1.03,4.28l-.29,1.15ZM340.65,174.55c0-.84.61-1.48,1.5-1.48s1.48.64,1.48,1.48-.62,1.5-1.48,1.5-1.5-.64-1.5-1.5Z"
     id="path164"
     style="fill:#f9f9f9;fill-opacity:1" />
  <path
     class="cls-1"
     d="M348.4,179.67h-3.63v-2.66h10.43v2.66h-3.63v10.68h-3.18v-10.68Z"
     id="path166"
     style="fill:#f9f9f9;fill-opacity:1" />
  <path
     class="cls-1"
     d="M361.36,177.01h8.52v2.66h-5.33v2.91h4.55v2.66h-4.55v5.1h-3.2v-13.34Z"
     id="path168"
     style="fill:#f9f9f9;fill-opacity:1" />
  <path
     class="cls-1"
     d="M372.18,177.01h3.2v10.68h5.18v2.66h-8.38v-13.34Z"
     id="path170"
     style="fill:#f9f9f9;fill-opacity:1" />
  <path
     class="cls-1"
     d="M382.88,177.01h8.44v2.66h-5.25v2.5h4.49v2.66h-4.49v2.85h5.45v2.66h-8.65v-13.34Z"
     id="path172"
     style="fill:#f9f9f9;fill-opacity:1" />
  <path
     class="cls-1"
     d="M394.16,177.01h3.3l3.28,6.39c.47.9.9,1.97,1.31,3.01h.08c-.16-1.43-.41-3.34-.41-4.92v-4.49h3.01v13.34h-3.28l-3.3-6.39c-.45-.9-.88-1.97-1.29-3.01h-.08c.16,1.48.41,3.32.41,4.92v4.49h-3.03v-13.34Z"
     id="path174"
     style="fill:#f9f9f9;fill-opacity:1" />
  <path
     class="cls-1"
     d="M406.99,188.65l1.68-2.07c.94.82,2.23,1.27,3.36,1.27,1.21,0,1.76-.45,1.76-1.17,0-.78-.72-1.02-1.88-1.5l-1.7-.74c-1.41-.55-2.71-1.72-2.71-3.65,0-2.23,2.01-4.04,4.84-4.04,1.6,0,3.18.59,4.32,1.66l-1.66,2.07c-.9-.64-1.82-.98-2.66-.98-.98,0-1.62.39-1.62,1.09,0,.78.84,1.05,2.03,1.52l1.66.68c1.66.66,2.64,1.76,2.64,3.63,0,2.23-1.87,4.18-5.08,4.18-1.8,0-3.59-.62-4.98-1.95Z"
     id="path176"
     style="fill:#f9f9f9;fill-opacity:1" />
  <path
     class="cls-1"
     d="M419.68,177.01h4.65c2.77,0,4.96.74,4.96,3.32,0,1.17-.66,2.46-1.74,2.87v.08c1.35.37,2.4,1.35,2.4,3.14,0,2.73-2.34,3.93-5.23,3.93h-5.04v-13.34ZM424.21,182.32c1.37,0,1.97-.59,1.97-1.52s-.64-1.35-1.95-1.35h-1.35v2.87h1.33ZM424.48,187.91c1.56,0,2.36-.57,2.36-1.7s-.78-1.56-2.36-1.56h-1.6v3.26h1.6Z"
     id="path178"
     style="fill:#f9f9f9;fill-opacity:1" />
  <path
     class="cls-1"
     d="M432.06,184.08v-7.07h3.18v7.42c0,2.54.76,3.42,2.21,3.42s2.27-.88,2.27-3.42v-7.42h3.05v7.07c0,4.51-1.78,6.52-5.33,6.52s-5.39-2.01-5.39-6.52Z"
     id="path180"
     style="fill:#f9f9f9;fill-opacity:1" />
  <path
     class="cls-1"
     d="M445.8,177.01h4.9c2.83,0,5.21.98,5.21,4.2,0,1.95-.92,3.2-2.29,3.85l2.97,5.29h-3.57l-2.46-4.69h-1.56v4.69h-3.2v-13.34ZM450.45,183.14c1.52,0,2.34-.66,2.34-1.93s-.82-1.68-2.34-1.68h-1.46v3.61h1.46Z"
     id="path182"
     style="fill:#f9f9f9;fill-opacity:1" />
  <path
     class="cls-1"
     d="M458.26,183.77c0-4.45,2.99-7.01,6.56-7.01,1.95,0,3.34.78,4.26,1.74l-1.68,1.93c-.66-.59-1.35-.92-2.48-.92-1.97,0-3.4,1.56-3.4,4.14s1.21,4.2,3.69,4.2c.47,0,.98-.12,1.27-.35v-2.15h-2.13v-2.6h4.96v6.23c-.92.9-2.56,1.62-4.45,1.62-3.69,0-6.6-2.32-6.6-6.82Z"
     id="path184"
     style="fill:#f9f9f9;fill-opacity:1" />
</svg>
